<svg xmlns="http://www.w3.org/2000/svg" xmlns:xlink="http://www.w3.org/1999/xlink" contentStyleType="text/css" data-diagram-type="SEQUENCE" height="1275px" preserveAspectRatio="none" style="width:1865px;height:1275px;background:#FFFFFF;" version="1.1" viewBox="0 0 1865 1275" width="1865px" zoomAndPan="magnify"><?plantuml 1.2026.6?><defs/><g><g class="title" data-source-line="5"><text fill="#000000" font-family="'DejaVu Sans'" font-size="18" font-weight="700" lengthAdjust="spacing" textLength="237.2344" x="813.3314" y="31.708">POST /api/routines/skip</text><text fill="#607D8B" font-family="'DejaVu Sans'" font-size="12" font-weight="700" lengthAdjust="spacing" textLength="331.7813" x="766.058" y="47.0918">Confirmed scheduled-occurrence skip with no XP</text></g><g class="legend" data-source-line="52"><rect fill="none" height="95.4844" rx="7.5" ry="7.5" style="stroke:#000000;stroke-width:1;" width="260.9814" x="10" y="65.9219"/><text fill="#000000" font-family="'DejaVu Sans'" font-size="14" font-weight="700" lengthAdjust="spacing" textLength="39.457" x="19.874" y="85.917">&#1062;&#1074;&#1077;&#1090;</text><text fill="#000000" font-family="'DejaVu Sans'" font-size="14" font-weight="700" lengthAdjust="spacing" textLength="88.9355" x="69.0791" y="85.917">&#1048;&#1079;&#1084;&#1077;&#1085;&#1077;&#1085;&#1080;&#1077;</text><rect fill="#00C853" height="16.2969" style="stroke:none;stroke-width:1;" width="49.2051" x="15" y="89.2188"/><text fill="#000000" font-family="'DejaVu Sans'" font-size="14" lengthAdjust="spacing" textLength="4.4502" x="15" y="102.2139">&#160;</text><text fill="#000000" font-family="'DejaVu Sans'" font-size="14" lengthAdjust="spacing" textLength="43.1484" x="68.6553" y="102.2139">&#1085;&#1086;&#1074;&#1086;&#1077;</text><rect fill="#2962FF" height="16.2969" style="stroke:none;stroke-width:1;" width="49.2051" x="15" y="105.5156"/><text fill="#000000" font-family="'DejaVu Sans'" font-size="14" lengthAdjust="spacing" textLength="4.4502" x="15" y="118.5107">&#160;</text><text fill="#000000" font-family="'DejaVu Sans'" font-size="14" lengthAdjust="spacing" textLength="129.3496" x="68.6553" y="118.5107">&#1080;&#1079;&#1084;&#1077;&#1085;&#1105;&#1085;&#1085;&#1086;&#1077; AS IS</text><rect fill="#D50000" height="16.2969" style="stroke:none;stroke-width:1;" width="49.2051" x="15" y="121.8125"/><text fill="#000000" font-family="'DejaVu Sans'" font-size="14" lengthAdjust="spacing" textLength="4.4502" x="15" y="134.8076">&#160;</text><text fill="#000000" font-family="'DejaVu Sans'" font-size="14" lengthAdjust="spacing" textLength="184.2695" x="68.6553" y="134.8076">&#1091;&#1076;&#1072;&#1083;&#1105;&#1085;&#1085;&#1086;&#1077;/&#1079;&#1072;&#1087;&#1088;&#1077;&#1097;&#1105;&#1085;&#1085;&#1086;&#1077;</text><rect fill="#7E57C2" height="16.2969" style="stroke:none;stroke-width:1;" width="49.2051" x="15" y="138.1094"/><text fill="#000000" font-family="'DejaVu Sans'" font-size="14" lengthAdjust="spacing" textLength="4.4502" x="15" y="151.1045">&#160;</text><text fill="#000000" font-family="'DejaVu Sans'" font-size="14" lengthAdjust="spacing" textLength="192.876" x="68.6553" y="151.1045">&#1080;&#1079;&#1084;&#1077;&#1085;&#1077;&#1085;&#1080;&#1077; &#1082;&#1086;&#1085;&#1092;&#1080;&#1075;&#1091;&#1088;&#1072;&#1094;&#1080;&#1080;</text><line style="stroke:#000000;stroke-width:1;" x1="15" x2="265.9814" y1="72.9219" y2="72.9219"/><line style="stroke:#000000;stroke-width:1;" x1="15" x2="265.9814" y1="89.2188" y2="89.2188"/><line style="stroke:#000000;stroke-width:1;" x1="15" x2="265.9814" y1="105.5156" y2="105.5156"/><line style="stroke:#000000;stroke-width:1;" x1="15" x2="265.9814" y1="121.8125" y2="121.8125"/><line style="stroke:#000000;stroke-width:1;" x1="15" x2="265.9814" y1="138.1094" y2="138.1094"/><line style="stroke:#000000;stroke-width:1;" x1="15" x2="265.9814" y1="154.4063" y2="154.4063"/><line style="stroke:#000000;stroke-width:1;" x1="15" x2="15" y1="72.9219" y2="154.4063"/><line style="stroke:#000000;stroke-width:1;" x1="64.2051" x2="64.2051" y1="72.9219" y2="154.4063"/><line style="stroke:#000000;stroke-width:1;" x1="265.9814" x2="265.9814" y1="72.9219" y2="154.4063"/></g><rect fill="#F5F7FA" height="1062.3828" style="stroke:#000000;stroke-width:1;" width="508.8757" x="21" y="173.4063"/><text fill="#000000" font-family="'DejaVu Sans'" font-size="13" font-weight="700" lengthAdjust="spacing" textLength="185.1421" x="182.8668" y="185.4731">User / Telegram Mini App</text><rect fill="#EEF4FF" height="1062.3828" style="stroke:#000000;stroke-width:1;" width="142.5908" x="950.5535" y="173.4063"/><text fill="#000000" font-family="'DejaVu Sans'" font-size="13" font-weight="700" lengthAdjust="spacing" textLength="100.5532" x="971.5723" y="185.4731">FamTrack API</text><rect fill="#F5F7FA" height="1062.3828" style="stroke:#000000;stroke-width:1;" width="139.7305" x="1281.4001" y="173.4063"/><text fill="#000000" font-family="'DejaVu Sans'" font-size="13" font-weight="700" lengthAdjust="spacing" textLength="115.7305" x="1293.4001" y="185.4731">Routine domain</text><rect fill="#ECFDF3" height="1062.3828" style="stroke:#000000;stroke-width:1;" width="199.0723" x="1649.825" y="173.4063"/><text fill="#000000" font-family="'DejaVu Sans'" font-size="13" font-weight="700" lengthAdjust="spacing" textLength="39.3809" x="1729.6707" y="185.4731">State</text><rect fill="#FFF8E1" height="96.5313" style="stroke:#FFF8E1;stroke-width:1;" width="1751.3228" x="44.0383" y="338.9375"/><rect fill="#EEF4FF" height="694.1875" style="stroke:#EEF4FF;stroke-width:1;" width="1751.3228" x="44.0383" y="435.4688"/><rect fill="#FFEBEE" height="85.5313" style="stroke:#FFEBEE;stroke-width:1;" width="974.8105" x="63.0383" y="635.3984"/><rect fill="#EEF4FF" height="276.3281" style="stroke:#EEF4FF;stroke-width:1;" width="764.5122" x="1005.8489" y="738.9297"/><g><title>Family member</title><rect fill="#000000" fill-opacity="0.00000" height="884.9844" width="8" x="75.5383" y="268.6719"/><line style="stroke:#B0BEC5;stroke-width:1;stroke-dasharray:5,5;" x1="79.0383" x2="79.0383" y1="268.6719" y2="1153.6563"/></g><g><title/><rect fill="#FFFFFF" height="866.9844" style="stroke:#000000;stroke-width:1;" width="10" x="74.0383" y="276.6719"/></g><g><title>..p_chg..</title><rect fill="#000000" fill-opacity="0.00000" height="884.9844" width="8" x="466.1633" y="268.6719"/><line style="stroke:#B0BEC5;stroke-width:1;stroke-dasharray:5,5;" x1="469.6633" x2="469.6633" y1="268.6719" y2="1153.6563"/></g><g><title/><rect fill="#EEF4FF" height="845.8516" style="stroke:#2962FF;stroke-width:1;" width="10" x="464.6633" y="297.8047"/></g><g><title>..p_chg..</title><rect fill="#000000" fill-opacity="0.00000" height="884.9844" width="8" x="1018.3489" y="268.6719"/><line style="stroke:#B0BEC5;stroke-width:1;stroke-dasharray:5,5;" x1="1021.8489" x2="1021.8489" y1="268.6719" y2="1153.6563"/></g><g><title/><rect fill="#EEF4FF" height="485.2578" style="stroke:#2962FF;stroke-width:1;" width="10" x="1016.8489" y="565.1328"/></g><g><title>..p_chg..</title><rect fill="#000000" fill-opacity="0.00000" height="884.9844" width="8" x="1347.7654" y="268.6719"/><line style="stroke:#B0BEC5;stroke-width:1;stroke-dasharray:5,5;" x1="1351.2654" x2="1351.2654" y1="268.6719" y2="1153.6563"/></g><g><title/><rect fill="#EEF4FF" height="86.3984" style="stroke:#2962FF;stroke-width:1;" width="10" x="1346.2654" y="862.5938"/></g><g><title>..p_chg..</title><rect fill="#000000" fill-opacity="0.00000" height="884.9844" width="8" x="1745.8611" y="268.6719"/><line style="stroke:#B0BEC5;stroke-width:1;stroke-dasharray:5,5;" x1="1749.3611" x2="1749.3611" y1="268.6719" y2="1153.6563"/></g><g><title/><rect fill="#EEF4FF" height="29.1328" style="stroke:#2962FF;stroke-width:1;" width="10" x="1744.3611" y="594.2656"/></g><g><title/><rect fill="#EEF4FF" height="29.1328" style="stroke:#2962FF;stroke-width:1;" width="10" x="1744.3611" y="978.125"/></g><text fill="#000000" font-family="'DejaVu Sans'" font-size="13" lengthAdjust="spacing" textLength="102.0767" x="25" y="265.606">Family member</text><ellipse cx="79.0383" cy="201.5391" fill="#FFFFFF" rx="8" ry="8" style="stroke:#000000;stroke-width:1;"/><path d="M79.0383,209.5391 L79.0383,236.5391 M66.0383,217.5391 L92.0383,217.5391 M79.0383,236.5391 L66.0383,251.5391 M79.0383,236.5391 L92.0383,251.5391" fill="none" style="stroke:#000000;stroke-width:1;"/><text fill="#0D47A1" font-family="'DejaVu Sans'" font-size="13" lengthAdjust="spacing" textLength="106.4248" x="413.4509" y="265.606">Routine controls</text><path d="M449.1633,225.5391 L449.1633,249.5391 M449.1633,237.5391 L466.1633,237.5391" fill="none" style="stroke:#2962FF;stroke-width:1;"/><ellipse cx="478.1633" cy="237.5391" fill="#EEF4FF" rx="12" ry="12" style="stroke:#2962FF;stroke-width:1;"/><text fill="#0D47A1" font-family="'DejaVu Sans'" font-size="13" lengthAdjust="spacing" textLength="128.5908" x="954.5535" y="265.606">Command endpoint</text><path d="M1001.3489,225.5391 L1001.3489,249.5391 M1001.3489,237.5391 L1018.3489,237.5391" fill="none" style="stroke:#2962FF;stroke-width:1;"/><ellipse cx="1030.3489" cy="237.5391" fill="#EEF4FF" rx="12" ry="12" style="stroke:#2962FF;stroke-width:1;"/><text fill="#0D47A1" font-family="'DejaVu Sans'" font-size="13" lengthAdjust="spacing" textLength="100.8706" x="1297.8301" y="265.606">Routine service</text><ellipse cx="1351.2654" cy="237.5391" fill="#EEF4FF" rx="12" ry="12" style="stroke:#2962FF;stroke-width:1;"/><polygon fill="#2962FF" points="1347.2654,225.5391,1353.2654,220.5391,1351.2654,225.5391,1353.2654,230.5391,1347.2654,225.5391" style="stroke:#2962FF;stroke-width:1;stroke-linejoin:miter;stroke-miterlimit:10;"/><text fill="#0D47A1" font-family="'DejaVu Sans'" font-size="13" lengthAdjust="spacing" textLength="185.0723" x="1653.825" y="265.606">SQLite aggregate + receipts</text><path d="M1731.3611,217.5391 C1731.3611,207.5391 1749.3611,207.5391 1749.3611,207.5391 C1749.3611,207.5391 1767.3611,207.5391 1767.3611,217.5391 L1767.3611,243.5391 C1767.3611,253.5391 1749.3611,253.5391 1749.3611,253.5391 C1749.3611,253.5391 1731.3611,253.5391 1731.3611,243.5391 L1731.3611,217.5391" fill="#EEF4FF" style="stroke:#2962FF;stroke-width:1;"/><path d="M1731.3611,217.5391 C1731.3611,227.5391 1749.3611,227.5391 1749.3611,227.5391 C1749.3611,227.5391 1767.3611,227.5391 1767.3611,217.5391" fill="none" style="stroke:#2962FF;stroke-width:1;"/><text fill="#000000" font-family="'DejaVu Sans'" font-size="13" lengthAdjust="spacing" textLength="102.0767" x="25" y="1226.7231">Family member</text><ellipse cx="79.0383" cy="1162.6563" fill="#FFFFFF" rx="8" ry="8" style="stroke:#000000;stroke-width:1;"/><path d="M79.0383,1170.6563 L79.0383,1197.6563 M66.0383,1178.6563 L92.0383,1178.6563 M79.0383,1197.6563 L66.0383,1212.6563 M79.0383,1197.6563 L92.0383,1212.6563" fill="none" style="stroke:#000000;stroke-width:1;"/><text fill="#0D47A1" font-family="'DejaVu Sans'" font-size="13" lengthAdjust="spacing" textLength="106.4248" x="413.4509" y="1197.7231">Routine controls</text><path d="M449.1633,1157.6563 L449.1633,1181.6563 M449.1633,1169.6563 L466.1633,1169.6563" fill="none" style="stroke:#2962FF;stroke-width:1;"/><ellipse cx="478.1633" cy="1169.6563" fill="#EEF4FF" rx="12" ry="12" style="stroke:#2962FF;stroke-width:1;"/><text fill="#0D47A1" font-family="'DejaVu Sans'" font-size="13" lengthAdjust="spacing" textLength="128.5908" x="954.5535" y="1197.7231">Command endpoint</text><path d="M1001.3489,1157.6563 L1001.3489,1181.6563 M1001.3489,1169.6563 L1018.3489,1169.6563" fill="none" style="stroke:#2962FF;stroke-width:1;"/><ellipse cx="1030.3489" cy="1169.6563" fill="#EEF4FF" rx="12" ry="12" style="stroke:#2962FF;stroke-width:1;"/><text fill="#0D47A1" font-family="'DejaVu Sans'" font-size="13" lengthAdjust="spacing" textLength="100.8706" x="1297.8301" y="1197.7231">Routine service</text><ellipse cx="1351.2654" cy="1169.6563" fill="#EEF4FF" rx="12" ry="12" style="stroke:#2962FF;stroke-width:1;"/><polygon fill="#2962FF" points="1347.2654,1157.6563,1353.2654,1152.6563,1351.2654,1157.6563,1353.2654,1162.6563,1347.2654,1157.6563" style="stroke:#2962FF;stroke-width:1;stroke-linejoin:miter;stroke-miterlimit:10;"/><text fill="#0D47A1" font-family="'DejaVu Sans'" font-size="13" lengthAdjust="spacing" textLength="185.0723" x="1653.825" y="1211.7231">SQLite aggregate + receipts</text><path d="M1731.3611,1163.6563 C1731.3611,1153.6563 1749.3611,1153.6563 1749.3611,1153.6563 C1749.3611,1153.6563 1767.3611,1153.6563 1767.3611,1163.6563 L1767.3611,1189.6563 C1767.3611,1199.6563 1749.3611,1199.6563 1749.3611,1199.6563 C1749.3611,1199.6563 1731.3611,1199.6563 1731.3611,1189.6563 L1731.3611,1163.6563" fill="#EEF4FF" style="stroke:#2962FF;stroke-width:1;"/><path d="M1731.3611,1163.6563 C1731.3611,1173.6563 1749.3611,1173.6563 1749.3611,1173.6563 C1749.3611,1173.6563 1767.3611,1173.6563 1767.3611,1163.6563" fill="none" style="stroke:#2962FF;stroke-width:1;"/><polygon fill="#2962FF" points="452.6633,293.8047,462.6633,297.8047,452.6633,301.8047,456.6633,297.8047" style="stroke:#2962FF;stroke-width:1;stroke-linejoin:miter;stroke-miterlimit:10;"/><line style="stroke:#2962FF;stroke-width:2;" x1="84.0383" x2="458.6633" y1="297.8047" y2="297.8047"/><text fill="#000000" font-family="'DejaVu Sans'" font-size="13" font-weight="700" lengthAdjust="spacing" textLength="9.0454" x="91.0383" y="292.7388">1</text><text fill="#000000" font-family="'DejaVu Sans'" font-size="13" lengthAdjust="spacing" textLength="120.3262" x="104.0837" y="292.7388">tap skip(routineId)</text><polygon fill="#2962FF" points="95.0383,322.9375,85.0383,326.9375,95.0383,330.9375,91.0383,326.9375" style="stroke:#2962FF;stroke-width:1;stroke-linejoin:miter;stroke-miterlimit:10;"/><line style="stroke:#2962FF;stroke-width:2;stroke-dasharray:2,2;" x1="89.0383" x2="463.6633" y1="326.9375" y2="326.9375"/><text fill="#000000" font-family="'DejaVu Sans'" font-size="13" font-weight="700" lengthAdjust="spacing" textLength="9.0454" x="101.0383" y="321.8716">2</text><text fill="#000000" font-family="'DejaVu Sans'" font-size="13" lengthAdjust="spacing" textLength="176.522" x="114.0837" y="321.8716">confirm &#171;skip without XP?&#187;</text><path d="M44.0383,338.9375 L108.4812,338.9375 L108.4812,346.0703 L98.4812,356.0703 L44.0383,356.0703 L44.0383,338.9375" fill="#E8D9B5" style="stroke:#000000;stroke-width:1;"/><rect fill="none" height="790.7188" style="stroke:#000000;stroke-width:1;" width="1751.3228" x="44.0383" y="338.9375"/><text fill="#000000" font-family="'DejaVu Sans'" font-size="13" font-weight="700" lengthAdjust="spacing" textLength="19.4429" x="59.0383" y="352.0044">alt</text><text fill="#000000" font-family="'DejaVu Sans'" font-size="13" font-weight="700" lengthAdjust="spacing" textLength="103.0796" x="123.4812" y="353.0044">[user cancels]</text><line style="stroke:#000000;stroke-width:1;stroke-dasharray:2,2;" x1="44.0383" x2="1795.3611" y1="435.4688" y2="435.4688"/><text fill="#000000" font-family="'DejaVu Sans'" font-size="13" font-weight="700" lengthAdjust="spacing" textLength="112.3281" x="49.0383" y="449.5356">[user confirms]</text><polygon fill="#2962FF" points="452.6633,383.3359,462.6633,387.3359,452.6633,391.3359,456.6633,387.3359" style="stroke:#2962FF;stroke-width:1;stroke-linejoin:miter;stroke-miterlimit:10;"/><line style="stroke:#2962FF;stroke-width:2;" x1="84.0383" x2="458.6633" y1="387.3359" y2="387.3359"/><text fill="#000000" font-family="'DejaVu Sans'" font-size="13" font-weight="700" lengthAdjust="spacing" textLength="9.0454" x="91.0383" y="382.27">3</text><text fill="#000000" font-family="'DejaVu Sans'" font-size="13" lengthAdjust="spacing" textLength="42.1104" x="104.0837" y="382.27">cancel</text><polygon fill="#2962FF" points="95.0383,412.4688,85.0383,416.4688,95.0383,420.4688,91.0383,416.4688" style="stroke:#2962FF;stroke-width:1;stroke-linejoin:miter;stroke-miterlimit:10;"/><line style="stroke:#2962FF;stroke-width:2;stroke-dasharray:2,2;" x1="89.0383" x2="463.6633" y1="416.4688" y2="416.4688"/><text fill="#000000" font-family="'DejaVu Sans'" font-size="13" font-weight="700" lengthAdjust="spacing" textLength="9.0454" x="101.0383" y="411.4028">4</text><text fill="#000000" font-family="'DejaVu Sans'" font-size="13" lengthAdjust="spacing" textLength="188.665" x="114.0837" y="411.4028">leave occurrence unchanged</text><polygon fill="#2962FF" points="452.6633,474.7344,462.6633,478.7344,452.6633,482.7344,456.6633,478.7344" style="stroke:#2962FF;stroke-width:1;stroke-linejoin:miter;stroke-miterlimit:10;"/><line style="stroke:#2962FF;stroke-width:2;" x1="84.0383" x2="458.6633" y1="478.7344" y2="478.7344"/><text fill="#000000" font-family="'DejaVu Sans'" font-size="13" font-weight="700" lengthAdjust="spacing" textLength="9.0454" x="91.0383" y="473.6685">5</text><text fill="#000000" font-family="'DejaVu Sans'" font-size="13" lengthAdjust="spacing" textLength="49.5371" x="104.0837" y="473.6685">confirm</text><line style="stroke:#2962FF;stroke-width:2;" x1="474.6633" x2="516.6633" y1="507.8672" y2="507.8672"/><line style="stroke:#2962FF;stroke-width:2;" x1="516.6633" x2="516.6633" y1="507.8672" y2="520.8672"/><line style="stroke:#2962FF;stroke-width:2;" x1="475.6633" x2="516.6633" y1="520.8672" y2="520.8672"/><polygon fill="#2962FF" points="485.6633,516.8672,475.6633,520.8672,485.6633,524.8672,481.6633,520.8672" style="stroke:#2962FF;stroke-width:1;stroke-linejoin:miter;stroke-miterlimit:10;"/><text fill="#000000" font-family="'DejaVu Sans'" font-size="13" font-weight="700" lengthAdjust="spacing" textLength="9.0454" x="481.6633" y="502.8013">6</text><text fill="#000000" font-family="'DejaVu Sans'" font-size="13" lengthAdjust="spacing" textLength="187.4272" x="494.7087" y="502.8013">disable controls for routineId</text><polygon fill="#2962FF" points="1004.8489,561.1328,1014.8489,565.1328,1004.8489,569.1328,1008.8489,565.1328" style="stroke:#2962FF;stroke-width:1;stroke-linejoin:miter;stroke-miterlimit:10;"/><line style="stroke:#2962FF;stroke-width:2;" x1="474.6633" x2="1010.8489" y1="565.1328" y2="565.1328"/><text fill="#000000" font-family="'DejaVu Sans'" font-size="13" font-weight="700" lengthAdjust="spacing" textLength="9.0454" x="481.6633" y="552.5005">7</text><text fill="#000000" font-family="'DejaVu Sans'" font-size="13" lengthAdjust="spacing" textLength="150.7886" x="494.7087" y="544.9341">POST /api/routines/skip</text><text fill="#000000" font-family="'DejaVu Sans'" font-size="13" lengthAdjust="spacing" textLength="213.8208" x="494.7087" y="560.0669">{revision, mutationId, routineId}</text><polygon fill="#2962FF" points="1732.3611,590.2656,1742.3611,594.2656,1732.3611,598.2656,1736.3611,594.2656" style="stroke:#2962FF;stroke-width:1;stroke-linejoin:miter;stroke-miterlimit:10;"/><line style="stroke:#2962FF;stroke-width:2;" x1="1026.8489" x2="1738.3611" y1="594.2656" y2="594.2656"/><text fill="#000000" font-family="'DejaVu Sans'" font-size="13" font-weight="700" lengthAdjust="spacing" textLength="9.0454" x="1033.8489" y="589.1997">8</text><text fill="#000000" font-family="'DejaVu Sans'" font-size="13" lengthAdjust="spacing" textLength="322.9814" x="1046.8943" y="589.1997">find receipt + load scheduled template/open task</text><polygon fill="#2962FF" points="1037.8489,619.3984,1027.8489,623.3984,1037.8489,627.3984,1033.8489,623.3984" style="stroke:#2962FF;stroke-width:1;stroke-linejoin:miter;stroke-miterlimit:10;"/><line style="stroke:#2962FF;stroke-width:2;stroke-dasharray:2,2;" x1="1031.8489" x2="1743.3611" y1="623.3984" y2="623.3984"/><text fill="#000000" font-family="'DejaVu Sans'" font-size="13" font-weight="700" lengthAdjust="spacing" textLength="9.0454" x="1043.8489" y="618.3325">9</text><text fill="#000000" font-family="'DejaVu Sans'" font-size="13" lengthAdjust="spacing" textLength="288.8882" x="1056.8943" y="618.3325">duplicate | current template/task | notFound</text><path d="M63.0383,635.3984 L149.99,635.3984 L149.99,642.5313 L139.99,652.5313 L63.0383,652.5313 L63.0383,635.3984" fill="#E7C9C9" style="stroke:#000000;stroke-width:1;"/><rect fill="none" height="85.5313" style="stroke:#000000;stroke-width:1;" width="974.8105" x="63.0383" y="635.3984"/><text fill="#000000" font-family="'DejaVu Sans'" font-size="13" font-weight="700" lengthAdjust="spacing" textLength="41.9517" x="78.0383" y="648.4653">break</text><text fill="#000000" font-family="'DejaVu Sans'" font-size="13" font-weight="700" lengthAdjust="spacing" textLength="258.0767" x="164.99" y="649.4653">[not scheduled/open OR forbidden]</text><polygon fill="#2962FF" points="485.6633,679.7969,475.6633,683.7969,485.6633,687.7969,481.6633,683.7969" style="stroke:#2962FF;stroke-width:1;stroke-linejoin:miter;stroke-miterlimit:10;"/><line style="stroke:#2962FF;stroke-width:2;stroke-dasharray:2,2;" x1="479.6633" x2="1015.8489" y1="683.7969" y2="683.7969"/><text fill="#000000" font-family="'DejaVu Sans'" font-size="13" font-weight="700" lengthAdjust="spacing" textLength="18.0908" x="491.6633" y="678.731">10</text><text fill="#000000" font-family="'DejaVu Sans'" font-size="13" lengthAdjust="spacing" textLength="496.0947" x="513.7542" y="678.731">404 ROUTINE_NOT_FOUND | 403 FORBIDDEN | 409 NO_OPEN_OCCURRENCE</text><polygon fill="#2962FF" points="95.0383,708.9297,85.0383,712.9297,95.0383,716.9297,91.0383,712.9297" style="stroke:#2962FF;stroke-width:1;stroke-linejoin:miter;stroke-miterlimit:10;"/><line style="stroke:#2962FF;stroke-width:2;stroke-dasharray:2,2;" x1="89.0383" x2="463.6633" y1="712.9297" y2="712.9297"/><text fill="#000000" font-family="'DejaVu Sans'" font-size="13" font-weight="700" lengthAdjust="spacing" textLength="18.0908" x="101.0383" y="707.8638">11</text><text fill="#000000" font-family="'DejaVu Sans'" font-size="13" lengthAdjust="spacing" textLength="334.5342" x="123.1292" y="707.8638">re-enable controls and show error; no state change</text><path d="M1005.8489,738.9297 L1070.2917,738.9297 L1070.2917,746.0625 L1060.2917,756.0625 L1005.8489,756.0625 L1005.8489,738.9297" fill="#D8E2F1" style="stroke:#000000;stroke-width:1;"/><rect fill="none" height="276.3281" style="stroke:#000000;stroke-width:1;" width="764.5122" x="1005.8489" y="738.9297"/><text fill="#000000" font-family="'DejaVu Sans'" font-size="13" font-weight="700" lengthAdjust="spacing" textLength="19.4429" x="1020.8489" y="751.9966">alt</text><text fill="#000000" font-family="'DejaVu Sans'" font-size="13" font-weight="700" lengthAdjust="spacing" textLength="124.5918" x="1085.2917" y="752.9966">[exact duplicate]</text><line style="stroke:#000000;stroke-width:1;stroke-dasharray:2,2;" x1="1005.8489" x2="1770.3611" y1="819.3281" y2="819.3281"/><text fill="#000000" font-family="'DejaVu Sans'" font-size="13" font-weight="700" lengthAdjust="spacing" textLength="117.5522" x="1010.8489" y="833.395">[new command]</text><line style="stroke:#2962FF;stroke-width:2;" x1="1026.8489" x2="1068.8489" y1="787.3281" y2="787.3281"/><line style="stroke:#2962FF;stroke-width:2;" x1="1068.8489" x2="1068.8489" y1="787.3281" y2="800.3281"/><line style="stroke:#2962FF;stroke-width:2;" x1="1027.8489" x2="1068.8489" y1="800.3281" y2="800.3281"/><polygon fill="#2962FF" points="1037.8489,796.3281,1027.8489,800.3281,1037.8489,804.3281,1033.8489,800.3281" style="stroke:#2962FF;stroke-width:1;stroke-linejoin:miter;stroke-miterlimit:10;"/><text fill="#000000" font-family="'DejaVu Sans'" font-size="13" font-weight="700" lengthAdjust="spacing" textLength="18.0908" x="1033.8489" y="782.2622">12</text><text fill="#000000" font-family="'DejaVu Sans'" font-size="13" lengthAdjust="spacing" textLength="234.0889" x="1055.9397" y="782.2622">reuse receipt; do not advance twice</text><polygon fill="#2962FF" points="1334.2654,858.5938,1344.2654,862.5938,1334.2654,866.5938,1338.2654,862.5938" style="stroke:#2962FF;stroke-width:1;stroke-linejoin:miter;stroke-miterlimit:10;"/><line style="stroke:#2962FF;stroke-width:2;" x1="1026.8489" x2="1340.2654" y1="862.5938" y2="862.5938"/><text fill="#000000" font-family="'DejaVu Sans'" font-size="13" font-weight="700" lengthAdjust="spacing" textLength="18.0908" x="1033.8489" y="857.5278">13</text><text fill="#000000" font-family="'DejaVu Sans'" font-size="13" lengthAdjust="spacing" textLength="278.3257" x="1055.9397" y="857.5278">skipRoutine(routineId, actor): SkipDecision</text><line style="stroke:#2962FF;stroke-width:2;" x1="1356.2654" x2="1398.2654" y1="906.8594" y2="906.8594"/><line style="stroke:#2962FF;stroke-width:2;" x1="1398.2654" x2="1398.2654" y1="906.8594" y2="919.8594"/><line style="stroke:#2962FF;stroke-width:2;" x1="1357.2654" x2="1398.2654" y1="919.8594" y2="919.8594"/><polygon fill="#2962FF" points="1367.2654,915.8594,1357.2654,919.8594,1367.2654,923.8594,1363.2654,919.8594" style="stroke:#2962FF;stroke-width:1;stroke-linejoin:miter;stroke-miterlimit:10;"/><text fill="#000000" font-family="'DejaVu Sans'" font-size="13" font-weight="700" lengthAdjust="spacing" textLength="18.0908" x="1363.2654" y="894.2271">14</text><text fill="#000000" font-family="'DejaVu Sans'" font-size="13" lengthAdjust="spacing" textLength="313.8027" x="1385.3562" y="886.6606">old task -&gt; DROPPED; streak -&gt; 0; XP delta = 0;</text><text fill="#000000" font-family="'DejaVu Sans'" font-size="13" lengthAdjust="spacing" textLength="357.0049" x="1385.3562" y="901.7935">next date from schedule; create zero-or-one successor</text><polygon fill="#2962FF" points="1037.8489,944.9922,1027.8489,948.9922,1037.8489,952.9922,1033.8489,948.9922" style="stroke:#2962FF;stroke-width:1;stroke-linejoin:miter;stroke-miterlimit:10;"/><line style="stroke:#2962FF;stroke-width:2;stroke-dasharray:2,2;" x1="1031.8489" x2="1345.2654" y1="948.9922" y2="948.9922"/><text fill="#000000" font-family="'DejaVu Sans'" font-size="13" font-weight="700" lengthAdjust="spacing" textLength="18.0908" x="1043.8489" y="943.9263">15</text><text fill="#000000" font-family="'DejaVu Sans'" font-size="13" lengthAdjust="spacing" textLength="212.0308" x="1065.9397" y="943.9263">SKIPPED event + template/tasks</text><polygon fill="#2962FF" points="1732.3611,974.125,1742.3611,978.125,1732.3611,982.125,1736.3611,978.125" style="stroke:#2962FF;stroke-width:1;stroke-linejoin:miter;stroke-miterlimit:10;"/><line style="stroke:#2962FF;stroke-width:2;" x1="1026.8489" x2="1738.3611" y1="978.125" y2="978.125"/><text fill="#000000" font-family="'DejaVu Sans'" font-size="13" font-weight="700" lengthAdjust="spacing" textLength="18.0908" x="1033.8489" y="973.0591">16</text><text fill="#000000" font-family="'DejaVu Sans'" font-size="13" lengthAdjust="spacing" textLength="329.4307" x="1055.9397" y="973.0591">atomic template/tasks/event/receipt/revision write</text><polygon fill="#2962FF" points="1037.8489,1003.2578,1027.8489,1007.2578,1037.8489,1011.2578,1033.8489,1007.2578" style="stroke:#2962FF;stroke-width:1;stroke-linejoin:miter;stroke-miterlimit:10;"/><line style="stroke:#2962FF;stroke-width:2;stroke-dasharray:2,2;" x1="1031.8489" x2="1743.3611" y1="1007.2578" y2="1007.2578"/><text fill="#000000" font-family="'DejaVu Sans'" font-size="13" font-weight="700" lengthAdjust="spacing" textLength="18.0908" x="1043.8489" y="1002.1919">17</text><text fill="#000000" font-family="'DejaVu Sans'" font-size="13" lengthAdjust="spacing" textLength="131.0537" x="1065.9397" y="1002.1919">committed AppData</text><polygon fill="#2962FF" points="485.6633,1046.3906,475.6633,1050.3906,485.6633,1054.3906,481.6633,1050.3906" style="stroke:#2962FF;stroke-width:1;stroke-linejoin:miter;stroke-miterlimit:10;"/><line style="stroke:#2962FF;stroke-width:2;stroke-dasharray:2,2;" x1="479.6633" x2="1015.8489" y1="1050.3906" y2="1050.3906"/><text fill="#000000" font-family="'DejaVu Sans'" font-size="13" font-weight="700" lengthAdjust="spacing" textLength="18.0908" x="491.6633" y="1045.3247">18</text><text fill="#000000" font-family="'DejaVu Sans'" font-size="13" lengthAdjust="spacing" textLength="250.8848" x="513.7542" y="1045.3247">200 authoritative state; xpAwarded=0</text><line style="stroke:#2962FF;stroke-width:2;" x1="474.6633" x2="516.6633" y1="1079.5234" y2="1079.5234"/><line style="stroke:#2962FF;stroke-width:2;" x1="516.6633" x2="516.6633" y1="1079.5234" y2="1092.5234"/><line style="stroke:#2962FF;stroke-width:2;" x1="475.6633" x2="516.6633" y1="1092.5234" y2="1092.5234"/><polygon fill="#2962FF" points="485.6633,1088.5234,475.6633,1092.5234,485.6633,1096.5234,481.6633,1092.5234" style="stroke:#2962FF;stroke-width:1;stroke-linejoin:miter;stroke-miterlimit:10;"/><text fill="#000000" font-family="'DejaVu Sans'" font-size="13" font-weight="700" lengthAdjust="spacing" textLength="18.0908" x="481.6633" y="1074.4575">19</text><text fill="#000000" font-family="'DejaVu Sans'" font-size="13" lengthAdjust="spacing" textLength="203.0615" x="503.7542" y="1074.4575">re-enable controls for routineId</text><polygon fill="#2962FF" points="95.0383,1117.6563,85.0383,1121.6563,95.0383,1125.6563,91.0383,1121.6563" style="stroke:#2962FF;stroke-width:1;stroke-linejoin:miter;stroke-miterlimit:10;"/><line style="stroke:#2962FF;stroke-width:2;stroke-dasharray:2,2;" x1="89.0383" x2="463.6633" y1="1121.6563" y2="1121.6563"/><text fill="#000000" font-family="'DejaVu Sans'" font-size="13" font-weight="700" lengthAdjust="spacing" textLength="18.0908" x="101.0383" y="1116.5903">20</text><text fill="#000000" font-family="'DejaVu Sans'" font-size="13" lengthAdjust="spacing" textLength="318.8872" x="123.1292" y="1116.5903">show &#171;&#1055;&#1088;&#1086;&#1087;&#1091;&#1097;&#1077;&#1085;&#1086; &#1073;&#1077;&#1079; XP&#187; and next occurrence</text><g class="footer" data-source-line="9"><text fill="#607D8B" font-family="'DejaVu Sans'" font-size="12" lengthAdjust="spacing" textLength="491.1973" x="686.35" y="1260.9277">SKIPPED event / zero XP / one successor from schedule / mutationId idempotency</text></g><?plantuml-src VLR1RY974BtFLzGI7upM19Ju4jXrX67mejZ03g14oaQZPgOCBSzqJtfwmDuaKgISyXNvW3tb4EMmoaRo5-0_IdKFC80XN62cgrvLltfLnOj4iMdCGADy3rfbwBpW8eYo4C5FzKE4Vee_VfvaSUGuBDDIPF44bQEvZj01-fnSdfO6_U48gYpXLIKppGMcrVIE9wLoRZ6yEJsv6O_Szccf9SKjLp66a0Op3BC8mueCWamf5062yO85rpCG4huRbCfb1qK8URHRAJMg7RZXDzt1m6q3pb5egC9xLCQFVab1Q5aGO9fA1RTAnfk8T1fdccakHJS47cAS4B087amuPoBleJHEAL0LHXZXLB4ORhZWq4oI4fnS--EXwzcBiK0JTgd3OXuzG8o6cHAmD3-m9XEPYP2f1oXvEJCGIA6LZ59hc75uzIhnWzdquiBUbABd6H3eIB7W3fg3herAttk8BHd7Z7p8Bv5Sw3nqSXHodK4eOyQ51MtrFTUYhh8gZ8Y0EG_GOgwAUWntI5oYXMitHqqB5pBD9Yn5EdnxpJK2cquLJiaENeB207cYSmR2oG5OXmZaSsETCvaJNVd-fEMttbpzS65uguDcYHNCwIg_RbWk73Fka55booS7gPkh6Wd2uuUDsiYVLFFruqUA7EdFJZgU_stJw_blt6ORYiVBAyYCC096MetIBGtifvPRM8CZMKJ8vWXRqiz4C6DYYg53q9X7xVOw_I9gdlV_XirDDd7tZaEUiabKI11k2MD3tW4l8wOw7EdkT-8dXNEUKXkTRJNKMO7uophLLIqJdhz8TeAG0kfmowdqAs6GH2B9jYO43QSuYGYYAXCKLFVqRXSvdEIgc-nIRRCFioJYWR7w6NAoTO5deEYzaBfZsYf7mNtSYK9sPmlIyhgZBLNOHweF-HVPvadsFSFkX8SX2WkokVb-LSvhv-3rnwDkp_Lx_P7VwOzxRKhglFObTFhUPRVTTdls-IlezVt-mEtv_LPhx7bkh-Lki8_eJ645nMxLpSn8Pt81g9HK3JDgKzF2a0lG8kAAZ7KxM2KM5ryB4-yfJa7nxaNtAw6GTBmkSeF6aEMDXNFJBA0ND6xosC_qBt11wTjfTop4UaRLxKXOJR5YCfpbX9JhCAJZDWPMjmNOkk8hXyt16lPW91c5LenGkO2srpURg45K6hMOLxM6MKKXHfh1Qtfw9mJUQpCRSNSXDI0W7tfhrbT5gihEydgUopDcTzVWorrzfnk0BMNlt_DGJp8jOnxiWLLjZEggYjNr1825ujlrt-kWezrfgigrfXwdxTgchN4esHN8HfE7kkYBMWte_ybCKXuqYMYsMaqtu3vfBfWACNnTss_lzK0wC2eFjCtXONcWvMnlFNvO_l7qw_BJyj-dtvv-N_wr_6Vv2PP_qe-_IHMF7sqNMZqKEy3iFyVPIf2Ms7QwTXSwG_UjV-rUkRssFnmrH-FXQVa_?></g></svg>