<svg xmlns="http://www.w3.org/2000/svg" xmlns:xlink="http://www.w3.org/1999/xlink" contentStyleType="text/css" data-diagram-type="SEQUENCE" height="1027px" preserveAspectRatio="none" style="width:1206px;height:1027px;background:#FFFFFF;" version="1.1" viewBox="0 0 1206 1027" width="1206px" zoomAndPan="magnify"><?plantuml 1.2026.6?><defs/><g><g class="title" data-source-line="5"><text fill="#000000" font-family="'DejaVu Sans'" font-size="14" font-weight="700" lengthAdjust="spacing" textLength="563.582" x="320.4822" y="27.9951">FamTrack &#8212; invite claims an existing placeholder member (no XP split)</text></g><g><title>Child .first Telegram login.</title><rect fill="#000000" fill-opacity="0.00000" height="803.5391" width="8" x="103.2891" y="123.5938"/><line style="stroke:#94A3B8;stroke-width:0.5;stroke-dasharray:5,5;" x1="106.7891" x2="106.7891" y1="123.5938" y2="927.1328"/></g><g><title/><rect fill="#F8FAFC" height="777.5391" style="stroke:#181818;stroke-width:1;" width="10" x="101.7891" y="131.5938"/></g><g><title>Telegram Mini App</title><rect fill="#000000" fill-opacity="0.00000" height="803.5391" width="8" x="404.4712" y="123.5938"/><line style="stroke:#94A3B8;stroke-width:0.5;stroke-dasharray:5,5;" x1="407.9712" x2="407.9712" y1="123.5938" y2="927.1328"/></g><g><title/><rect fill="#F8FAFC" height="741.2734" style="stroke:#181818;stroke-width:1;" width="10" x="402.9712" y="167.8594"/></g><g><title>HTTP API</title><rect fill="#000000" fill-opacity="0.00000" height="803.5391" width="8" x="749.4312" y="123.5938"/><line style="stroke:#94A3B8;stroke-width:0.5;stroke-dasharray:5,5;" x1="752.9312" x2="752.9312" y1="123.5938" y2="927.1328"/></g><g><title/><rect fill="#F8FAFC" height="675.875" style="stroke:#181818;stroke-width:1;" width="10" x="747.9312" y="212.125"/></g><g><title>SQLite family aggregate</title><rect fill="#000000" fill-opacity="0.00000" height="803.5391" width="8" x="1103.9971" y="123.5938"/><line style="stroke:#94A3B8;stroke-width:0.5;stroke-dasharray:5,5;" x1="1107.4971" x2="1107.4971" y1="123.5938" y2="927.1328"/></g><g><title/><rect fill="#F8FAFC" height="29.1328" style="stroke:#181818;stroke-width:1;" width="10" x="1102.4971" y="241.2578"/></g><g><title/><rect fill="#F8FAFC" height="29.1328" style="stroke:#181818;stroke-width:1;" width="10" x="1102.4971" y="465.6641"/></g><g><title/><rect fill="#F8FAFC" height="29.1328" style="stroke:#181818;stroke-width:1;" width="10" x="1102.4971" y="660.3984"/></g><g><title/><rect fill="#F8FAFC" height="29.1328" style="stroke:#181818;stroke-width:1;" width="10" x="1102.4971" y="807.7344"/></g><text fill="#0F172A" font-family="'DejaVu Sans'" font-size="14" lengthAdjust="spacing" textLength="187.5781" x="10" y="120.292">Child (first Telegram login)</text><ellipse cx="106.7891" cy="55.7969" fill="#FFFFFF" rx="8" ry="8" style="stroke:#64748B;stroke-width:0.5;"/><path d="M106.7891,63.7969 L106.7891,90.7969 M93.7891,71.7969 L119.7891,71.7969 M106.7891,90.7969 L93.7891,105.7969 M106.7891,90.7969 L119.7891,105.7969" fill="none" style="stroke:#64748B;stroke-width:0.5;"/><text fill="#000000" font-family="'DejaVu Sans'" font-size="14" lengthAdjust="spacing" textLength="131.5098" x="339.2163" y="120.292">Telegram Mini App</text><path d="M387.4712,79.2969 L387.4712,103.2969 M387.4712,91.2969 L404.4712,91.2969" fill="none" style="stroke:#181818;stroke-width:0.5;"/><ellipse cx="416.4712" cy="91.2969" fill="#E2E2F0" rx="12" ry="12" style="stroke:#181818;stroke-width:0.5;"/><text fill="#000000" font-family="'DejaVu Sans'" font-size="14" lengthAdjust="spacing" textLength="62.6719" x="718.5952" y="120.292">HTTP API</text><path d="M732.4312,79.2969 L732.4312,103.2969 M732.4312,91.2969 L749.4312,91.2969" fill="none" style="stroke:#181818;stroke-width:0.5;"/><ellipse cx="761.4312" cy="91.2969" fill="#E2E2F0" rx="12" ry="12" style="stroke:#181818;stroke-width:0.5;"/><text fill="#000000" font-family="'DejaVu Sans'" font-size="14" lengthAdjust="spacing" textLength="170.0986" x="1019.4478" y="120.292">SQLite family aggregate</text><path d="M1089.4971,71.2969 C1089.4971,61.2969 1107.4971,61.2969 1107.4971,61.2969 C1107.4971,61.2969 1125.4971,61.2969 1125.4971,71.2969 L1125.4971,97.2969 C1125.4971,107.2969 1107.4971,107.2969 1107.4971,107.2969 C1107.4971,107.2969 1089.4971,107.2969 1089.4971,97.2969 L1089.4971,71.2969" fill="#E2E2F0" style="stroke:#181818;stroke-width:0.5;"/><path d="M1089.4971,71.2969 C1089.4971,81.2969 1107.4971,81.2969 1107.4971,81.2969 C1107.4971,81.2969 1125.4971,81.2969 1125.4971,71.2969" fill="none" style="stroke:#181818;stroke-width:0.5;"/><text fill="#0F172A" font-family="'DejaVu Sans'" font-size="14" lengthAdjust="spacing" textLength="187.5781" x="10" y="1000.1279">Child (first Telegram login)</text><ellipse cx="106.7891" cy="935.6328" fill="#FFFFFF" rx="8" ry="8" style="stroke:#64748B;stroke-width:0.5;"/><path d="M106.7891,943.6328 L106.7891,970.6328 M93.7891,951.6328 L119.7891,951.6328 M106.7891,970.6328 L93.7891,985.6328 M106.7891,970.6328 L119.7891,985.6328" fill="none" style="stroke:#64748B;stroke-width:0.5;"/><text fill="#000000" font-family="'DejaVu Sans'" font-size="14" lengthAdjust="spacing" textLength="131.5098" x="339.2163" y="972.1279">Telegram Mini App</text><path d="M387.4712,931.1328 L387.4712,955.1328 M387.4712,943.1328 L404.4712,943.1328" fill="none" style="stroke:#181818;stroke-width:0.5;"/><ellipse cx="416.4712" cy="943.1328" fill="#E2E2F0" rx="12" ry="12" style="stroke:#181818;stroke-width:0.5;"/><text fill="#000000" font-family="'DejaVu Sans'" font-size="14" lengthAdjust="spacing" textLength="62.6719" x="718.5952" y="972.1279">HTTP API</text><path d="M732.4312,931.1328 L732.4312,955.1328 M732.4312,943.1328 L749.4312,943.1328" fill="none" style="stroke:#181818;stroke-width:0.5;"/><ellipse cx="761.4312" cy="943.1328" fill="#E2E2F0" rx="12" ry="12" style="stroke:#181818;stroke-width:0.5;"/><text fill="#000000" font-family="'DejaVu Sans'" font-size="14" lengthAdjust="spacing" textLength="170.0986" x="1019.4478" y="986.1279">SQLite family aggregate</text><path d="M1089.4971,937.1328 C1089.4971,927.1328 1107.4971,927.1328 1107.4971,927.1328 C1107.4971,927.1328 1125.4971,927.1328 1125.4971,937.1328 L1125.4971,963.1328 C1125.4971,973.1328 1107.4971,973.1328 1107.4971,973.1328 C1107.4971,973.1328 1089.4971,973.1328 1089.4971,963.1328 L1089.4971,937.1328" fill="#E2E2F0" style="stroke:#181818;stroke-width:0.5;"/><path d="M1089.4971,937.1328 C1089.4971,947.1328 1107.4971,947.1328 1107.4971,947.1328 C1107.4971,947.1328 1125.4971,947.1328 1125.4971,937.1328" fill="none" style="stroke:#181818;stroke-width:0.5;"/><polygon fill="#475569" points="390.9712,163.8594,400.9712,167.8594,390.9712,171.8594,394.9712,167.8594" style="stroke:#475569;stroke-width:1;stroke-linejoin:miter;stroke-miterlimit:10;"/><line style="stroke:#475569;stroke-width:1;" x1="111.7891" x2="396.9712" y1="167.8594" y2="167.8594"/><text fill="#000000" font-family="'DejaVu Sans'" font-size="13" font-weight="700" lengthAdjust="spacing" textLength="9.0454" x="118.7891" y="155.2271">1</text><text fill="#000000" font-family="'DejaVu Sans'" font-size="13" lengthAdjust="spacing" textLength="136.5825" x="131.8345" y="147.6606">open invite deep link</text><text fill="#000000" font-family="'DejaVu Sans'" font-size="13" lengthAdjust="spacing" textLength="259.1367" x="131.8345" y="162.7935">t.me/&lt;bot&gt;/&lt;app&gt;?startapp=&lt;token&gt;</text><polygon fill="#475569" points="735.9312,208.125,745.9312,212.125,735.9312,216.125,739.9312,212.125" style="stroke:#475569;stroke-width:1;stroke-linejoin:miter;stroke-miterlimit:10;"/><line style="stroke:#475569;stroke-width:1;" x1="412.9712" x2="741.9312" y1="212.125" y2="212.125"/><text fill="#000000" font-family="'DejaVu Sans'" font-size="13" font-weight="700" lengthAdjust="spacing" textLength="9.0454" x="419.9712" y="199.4927">2</text><text fill="#000000" font-family="'DejaVu Sans'" font-size="13" lengthAdjust="spacing" textLength="202.5029" x="433.0166" y="191.9263">POST /api/family/invites/accept</text><text fill="#000000" font-family="'DejaVu Sans'" font-size="13" lengthAdjust="spacing" textLength="209.0918" x="433.0166" y="207.0591">{token} + X-Telegram-Init-Data</text><polygon fill="#475569" points="1090.4971,237.2578,1100.4971,241.2578,1090.4971,245.2578,1094.4971,241.2578" style="stroke:#475569;stroke-width:1;stroke-linejoin:miter;stroke-miterlimit:10;"/><line style="stroke:#475569;stroke-width:1;" x1="757.9312" x2="1096.4971" y1="241.2578" y2="241.2578"/><text fill="#000000" font-family="'DejaVu Sans'" font-size="13" font-weight="700" lengthAdjust="spacing" textLength="9.0454" x="764.9312" y="236.1919">3</text><text fill="#000000" font-family="'DejaVu Sans'" font-size="13" lengthAdjust="spacing" textLength="312.5205" x="777.9766" y="236.1919">load invite by token + resolve telegram identity</text><polygon fill="#475569" points="768.9312,266.3906,758.9312,270.3906,768.9312,274.3906,764.9312,270.3906" style="stroke:#475569;stroke-width:1;stroke-linejoin:miter;stroke-miterlimit:10;"/><line style="stroke:#475569;stroke-width:1;stroke-dasharray:2,2;" x1="762.9312" x2="1101.4971" y1="270.3906" y2="270.3906"/><text fill="#000000" font-family="'DejaVu Sans'" font-size="13" font-weight="700" lengthAdjust="spacing" textLength="9.0454" x="774.9312" y="265.3247">4</text><text fill="#000000" font-family="'DejaVu Sans'" font-size="13" lengthAdjust="spacing" textLength="284.0195" x="787.9766" y="265.3247">invite {familyId, role, targetUserId?} | none</text><path d="M372.9712,282.3906 L437.4141,282.3906 L437.4141,289.5234 L427.4141,299.5234 L372.9712,299.5234 L372.9712,282.3906" fill="#F8FAFC" style="stroke:#CBD5E1;stroke-width:1.5;"/><rect fill="none" height="591.6094" style="stroke:#CBD5E1;stroke-width:1.5;" width="780.5259" x="372.9712" y="282.3906"/><text fill="#000000" font-family="'DejaVu Sans'" font-size="13" font-weight="700" lengthAdjust="spacing" textLength="19.4429" x="387.9712" y="295.4575">alt</text><text fill="#334155" font-family="'DejaVu Sans'" font-size="11" font-weight="700" lengthAdjust="spacing" textLength="196.9741" x="452.4141" y="294.6011">[invite missing / used / expired]</text><line style="stroke:#CBD5E1;stroke-width:1;stroke-dasharray:2,2;" x1="372.9712" x2="1153.4971" y1="349.6563" y2="349.6563"/><text fill="#334155" font-family="'DejaVu Sans'" font-size="11" font-weight="700" lengthAdjust="spacing" textLength="279.5923" x="377.9712" y="361.8667">[telegram account already in another family]</text><line style="stroke:#CBD5E1;stroke-width:1;stroke-dasharray:2,2;" x1="372.9712" x2="1153.4971" y1="409.5938" y2="409.5938"/><text fill="#334155" font-family="'DejaVu Sans'" font-size="11" font-weight="700" lengthAdjust="spacing" textLength="230.7422" x="377.9712" y="421.8042">[invite has targetUserId (claim flow)]</text><line style="stroke:#CBD5E1;stroke-width:1;stroke-dasharray:2,2;" x1="372.9712" x2="1153.4971" y1="751.6641" y2="751.6641"/><text fill="#334155" font-family="'DejaVu Sans'" font-size="11" font-weight="700" lengthAdjust="spacing" textLength="151.6152" x="377.9712" y="763.8745">[plain invite (no target)]</text><polygon fill="#475569" points="423.9712,326.6563,413.9712,330.6563,423.9712,334.6563,419.9712,330.6563" style="stroke:#475569;stroke-width:1;stroke-linejoin:miter;stroke-miterlimit:10;"/><line style="stroke:#475569;stroke-width:1;stroke-dasharray:2,2;" x1="417.9712" x2="746.9312" y1="330.6563" y2="330.6563"/><text fill="#000000" font-family="'DejaVu Sans'" font-size="13" font-weight="700" lengthAdjust="spacing" textLength="9.0454" x="429.9712" y="325.5903">5</text><text fill="#000000" font-family="'DejaVu Sans'" font-size="13" lengthAdjust="spacing" textLength="297.9146" x="443.0166" y="325.5903">404 | 409 INVITE_USED | 410 INVITE_EXPIRED</text><polygon fill="#475569" points="423.9712,386.5938,413.9712,390.5938,423.9712,394.5938,419.9712,390.5938" style="stroke:#475569;stroke-width:1;stroke-linejoin:miter;stroke-miterlimit:10;"/><line style="stroke:#475569;stroke-width:1;stroke-dasharray:2,2;" x1="417.9712" x2="746.9312" y1="390.5938" y2="390.5938"/><text fill="#000000" font-family="'DejaVu Sans'" font-size="13" font-weight="700" lengthAdjust="spacing" textLength="9.0454" x="429.9712" y="385.5278">6</text><text fill="#000000" font-family="'DejaVu Sans'" font-size="13" lengthAdjust="spacing" textLength="214.1826" x="443.0166" y="385.5278">409 ACCOUNT_ALREADY_LINKED</text><polygon fill="#475569" points="1090.4971,461.6641,1100.4971,465.6641,1090.4971,469.6641,1094.4971,465.6641" style="stroke:#475569;stroke-width:1;stroke-linejoin:miter;stroke-miterlimit:10;"/><line style="stroke:#475569;stroke-width:1;" x1="757.9312" x2="1096.4971" y1="465.6641" y2="465.6641"/><text fill="#000000" font-family="'DejaVu Sans'" font-size="13" font-weight="700" lengthAdjust="spacing" textLength="9.0454" x="764.9312" y="453.0317">7</text><text fill="#000000" font-family="'DejaVu Sans'" font-size="13" lengthAdjust="spacing" textLength="201.1699" x="777.9766" y="445.4653">verify target row: same family,</text><text fill="#000000" font-family="'DejaVu Sans'" font-size="13" lengthAdjust="spacing" textLength="179.1499" x="777.9766" y="460.5981">active, telegramId is empty</text><polygon fill="#475569" points="768.9312,490.7969,758.9312,494.7969,768.9312,498.7969,764.9312,494.7969" style="stroke:#475569;stroke-width:1;stroke-linejoin:miter;stroke-miterlimit:10;"/><line style="stroke:#475569;stroke-width:1;stroke-dasharray:2,2;" x1="762.9312" x2="1101.4971" y1="494.7969" y2="494.7969"/><text fill="#000000" font-family="'DejaVu Sans'" font-size="13" font-weight="700" lengthAdjust="spacing" textLength="9.0454" x="774.9312" y="489.731">8</text><text fill="#000000" font-family="'DejaVu Sans'" font-size="13" lengthAdjust="spacing" textLength="163.4902" x="787.9766" y="489.731">placeholder member row</text><path d="M391.9712,506.7969 L456.4141,506.7969 L456.4141,513.9297 L446.4141,523.9297 L391.9712,523.9297 L391.9712,506.7969" fill="#F8FAFC" style="stroke:#CBD5E1;stroke-width:1.5;"/><rect fill="none" height="219.8672" style="stroke:#CBD5E1;stroke-width:1.5;" width="736.5259" x="391.9712" y="506.7969"/><text fill="#000000" font-family="'DejaVu Sans'" font-size="13" font-weight="700" lengthAdjust="spacing" textLength="19.4429" x="406.9712" y="519.8638">alt</text><text fill="#334155" font-family="'DejaVu Sans'" font-size="11" font-weight="700" lengthAdjust="spacing" textLength="209.4243" x="471.4141" y="519.0073">[target already linked or missing]</text><line style="stroke:#CBD5E1;stroke-width:1;stroke-dasharray:2,2;" x1="391.9712" x2="1128.4971" y1="574.0625" y2="574.0625"/><text fill="#334155" font-family="'DejaVu Sans'" font-size="11" font-weight="700" lengthAdjust="spacing" textLength="94.8481" x="396.9712" y="586.2729">[claim allowed]</text><polygon fill="#475569" points="423.9712,551.0625,413.9712,555.0625,423.9712,559.0625,419.9712,555.0625" style="stroke:#475569;stroke-width:1;stroke-linejoin:miter;stroke-miterlimit:10;"/><line style="stroke:#475569;stroke-width:1;stroke-dasharray:2,2;" x1="417.9712" x2="746.9312" y1="555.0625" y2="555.0625"/><text fill="#000000" font-family="'DejaVu Sans'" font-size="13" font-weight="700" lengthAdjust="spacing" textLength="9.0454" x="429.9712" y="549.9966">9</text><text fill="#000000" font-family="'DejaVu Sans'" font-size="13" lengthAdjust="spacing" textLength="224.5674" x="443.0166" y="549.9966">409 CLAIM_TARGET_UNAVAILABLE</text><polygon fill="#475569" points="1090.4971,656.3984,1100.4971,660.3984,1090.4971,664.3984,1094.4971,660.3984" style="stroke:#475569;stroke-width:1;stroke-linejoin:miter;stroke-miterlimit:10;"/><line style="stroke:#475569;stroke-width:1;" x1="757.9312" x2="1096.4971" y1="660.3984" y2="660.3984"/><text fill="#000000" font-family="'DejaVu Sans'" font-size="13" font-weight="700" lengthAdjust="spacing" textLength="18.0908" x="764.9312" y="632.6333">10</text><text fill="#000000" font-family="'DejaVu Sans'" font-size="13" lengthAdjust="spacing" textLength="222.0283" x="787.022" y="609.9341">BEGIN; UPDATE existing user row:</text><text fill="#000000" font-family="'DejaVu Sans'" font-size="13" lengthAdjust="spacing" textLength="275.8374" x="787.022" y="625.0669">telegram_id, username, names, avatarUrl;</text><text fill="#000000" font-family="'DejaVu Sans'" font-size="13" lengthAdjust="spacing" textLength="197.6851" x="787.022" y="640.1997">keep id, xp, level, streak, role;</text><text fill="#000000" font-family="'DejaVu Sans'" font-size="13" lengthAdjust="spacing" textLength="192.3149" x="787.022" y="655.3325">mark invite used; revision +1</text><polygon fill="#475569" points="768.9312,685.5313,758.9312,689.5313,768.9312,693.5313,764.9312,689.5313" style="stroke:#475569;stroke-width:1;stroke-linejoin:miter;stroke-miterlimit:10;"/><line style="stroke:#475569;stroke-width:1;stroke-dasharray:2,2;" x1="762.9312" x2="1101.4971" y1="689.5313" y2="689.5313"/><text fill="#000000" font-family="'DejaVu Sans'" font-size="13" font-weight="700" lengthAdjust="spacing" textLength="18.0908" x="774.9312" y="684.4653">11</text><text fill="#000000" font-family="'DejaVu Sans'" font-size="13" lengthAdjust="spacing" textLength="53.5171" x="797.022" y="684.4653">COMMIT</text><polygon fill="#475569" points="423.9712,714.6641,413.9712,718.6641,423.9712,722.6641,419.9712,718.6641" style="stroke:#475569;stroke-width:1;stroke-linejoin:miter;stroke-miterlimit:10;"/><line style="stroke:#475569;stroke-width:1;stroke-dasharray:2,2;" x1="417.9712" x2="746.9312" y1="718.6641" y2="718.6641"/><text fill="#000000" font-family="'DejaVu Sans'" font-size="13" font-weight="700" lengthAdjust="spacing" textLength="18.0908" x="429.9712" y="713.5981">12</text><text fill="#000000" font-family="'DejaVu Sans'" font-size="13" lengthAdjust="spacing" textLength="258.7622" x="452.062" y="713.5981">app-data envelope for claimed member</text><polygon fill="#475569" points="1090.4971,803.7344,1100.4971,807.7344,1090.4971,811.7344,1094.4971,807.7344" style="stroke:#475569;stroke-width:1;stroke-linejoin:miter;stroke-miterlimit:10;"/><line style="stroke:#475569;stroke-width:1;" x1="757.9312" x2="1096.4971" y1="807.7344" y2="807.7344"/><text fill="#000000" font-family="'DejaVu Sans'" font-size="13" font-weight="700" lengthAdjust="spacing" textLength="18.0908" x="764.9312" y="795.1021">13</text><text fill="#000000" font-family="'DejaVu Sans'" font-size="13" lengthAdjust="spacing" textLength="218.772" x="787.022" y="787.5356">BEGIN; INSERT new member row;</text><text fill="#000000" font-family="'DejaVu Sans'" font-size="13" lengthAdjust="spacing" textLength="192.3149" x="787.022" y="802.6685">mark invite used; revision +1</text><polygon fill="#475569" points="768.9312,832.8672,758.9312,836.8672,768.9312,840.8672,764.9312,836.8672" style="stroke:#475569;stroke-width:1;stroke-linejoin:miter;stroke-miterlimit:10;"/><line style="stroke:#475569;stroke-width:1;stroke-dasharray:2,2;" x1="762.9312" x2="1101.4971" y1="836.8672" y2="836.8672"/><text fill="#000000" font-family="'DejaVu Sans'" font-size="13" font-weight="700" lengthAdjust="spacing" textLength="18.0908" x="774.9312" y="831.8013">14</text><text fill="#000000" font-family="'DejaVu Sans'" font-size="13" lengthAdjust="spacing" textLength="53.5171" x="797.022" y="831.8013">COMMIT</text><polygon fill="#475569" points="423.9712,862,413.9712,866,423.9712,870,419.9712,866" style="stroke:#475569;stroke-width:1;stroke-linejoin:miter;stroke-miterlimit:10;"/><line style="stroke:#475569;stroke-width:1;stroke-dasharray:2,2;" x1="417.9712" x2="746.9312" y1="866" y2="866"/><text fill="#000000" font-family="'DejaVu Sans'" font-size="13" font-weight="700" lengthAdjust="spacing" textLength="18.0908" x="429.9712" y="860.9341">15</text><text fill="#000000" font-family="'DejaVu Sans'" font-size="13" lengthAdjust="spacing" textLength="234.3809" x="452.062" y="860.9341">app-data envelope for new member</text><polygon fill="#475569" points="122.7891,905.1328,112.7891,909.1328,122.7891,913.1328,118.7891,909.1328" style="stroke:#475569;stroke-width:1;stroke-linejoin:miter;stroke-miterlimit:10;"/><line style="stroke:#475569;stroke-width:1;stroke-dasharray:2,2;" x1="116.7891" x2="401.9712" y1="909.1328" y2="909.1328"/><text fill="#000000" font-family="'DejaVu Sans'" font-size="13" font-weight="700" lengthAdjust="spacing" textLength="18.0908" x="128.7891" y="904.0669">16</text><text fill="#000000" font-family="'DejaVu Sans'" font-size="13" lengthAdjust="spacing" textLength="218.6958" x="150.8799" y="904.0669">&#1087;&#1088;&#1086;&#1092;&#1080;&#1083;&#1100; &#1087;&#1088;&#1080;&#1074;&#1103;&#1079;&#1072;&#1085;, XP &#1085;&#1072; &#1084;&#1077;&#1089;&#1090;&#1077;</text><g class="footer" data-source-line="6"><text fill="#888888" font-family="'DejaVu Sans'" font-size="10" lengthAdjust="spacing" textLength="400.7617" x="401.8923" y="1017.7119">Contract: claim updates the existing row; id, xp, level and streak survive linking</text></g><?plantuml-src ZLNBRjj65DtpAswyib79SW1l8hiE68bDYSgoQbE12nWGHkALFD1mXfqPobRJ06dHPO5k-Y51WQ01shI_GFr2lwHt-D33DOfiA79qUUQSSyzSFaarcoKCBAhlmEeClITSJaGM8nmUjaR6BWMEKgtYR6971hyzJBD4U1xBh99PCaRjMMu5mXSiYJIRpE6Vjxy2bmjk4IQ2ySG0au3tt5WkPv0ADi5R9MBKaA1x7_QbWki1c5HmU-1DbRAqs57I4fnjbo2GfJ6pQC3UuWPCgxiJu743xjC625oWeBrYC5OZcuF9z88l40INSwecpXEhDEnrRhc8ON_AjR4GeS2PPWa8DUFoO0-OWOahyCOgap7JIzXRrvnpoS5FqwAAfUbMpPTHD01_45P_SO_eiZ4p27jNN_US6LEMSB44Dfjfd96MeZ8U5xJuWZcxYdsBApJFt0RG1fMYhFsC4TD2pesqXmcsJiVAdhLEgV3ikR5CMxhx_DIgESgp3QmZwh0AI4wGWukh25fqtoevjKfuqsAJ2QRsHhuk8Dx0Pt3ThCKtGybjiqkgjf6vvo09EHuJi50ihhcEbr2W48X6emGrmjO-yXWbfMQvGI8V2A6vfbY1l2u9XjHYhGGsW4JEq0uDwZ1-_WQ-1waaUZ5k0tbCs1eWuSQufBGWCnZJ3zwdN6FiGR5HSstpyT4neHqVFOEm_ogCWj7mAkYwbQT7zKfmFGWlWww7mcnf8Sye11QOeD35IzgOCgWefhhg-2DRFGE_qxaOzgEHtxiC_EuterxO_wg6hgZVKZosvS9-UHAcGjqTrA2LyGlKVBgiojsnQ8DXIPsvneqi_77-LRG9ZXl09BK5lott07OQySXv9NXNXRjlETEh_MihN5B9T3fpLHkex34pEZq_F1z5_kNB81eD-_uhF-pvBte1bHU6bBgP8E55vtQrlmXUXlqJ60wwVXHiPWFrkw3QfhDIYHwvKU7M9NdJ07Sr3M2aWUcX5YStH9SEsCv0QLJJf0mWbIHCp-iMkKoTKBmNt715INzQajlnvO6VdOlpyp0gr_5XvQurT6swAG8eYGZD0PYIbOKPv6hP36UHZClSKAluUbIueLgsus5MAh_2_bLm6O74kws-VeA-_ydAMjj_il49kZP4FATe-qoNOoOj8Chfs8RyxzNR_A_LJ_c7_8_Lp-NZX_otrI_vx_cx_6F3VL7oZ_axoF_Ctwz-MFsOlz-5JBSV2zH_0G00?></g></svg>