<svg xmlns="http://www.w3.org/2000/svg" xmlns:xlink="http://www.w3.org/1999/xlink" contentStyleType="text/css" data-diagram-type="SEQUENCE" height="1227px" preserveAspectRatio="none" style="width:1698px;height:1227px;background:#FFFFFF;" version="1.1" viewBox="0 0 1698 1227" width="1698px" zoomAndPan="magnify"><?plantuml 1.2026.6?><defs/><g><g class="title" data-source-line="5"><text fill="#000000" font-family="'DejaVu Sans'" font-size="14" font-weight="700" lengthAdjust="spacing" textLength="535.4043" x="580.5942" y="27.9951">FamTrack &#8212; reward purchase on behalf of a child without Telegram</text></g><g><title>Parent .OWNER.ADMIN.</title><rect fill="#000000" fill-opacity="0.00000" height="1004.3359" width="8" x="92.895" y="123.5938"/><line style="stroke:#94A3B8;stroke-width:0.5;stroke-dasharray:5,5;" x1="96.395" x2="96.395" y1="123.5938" y2="1127.9297"/></g><g><title/><rect fill="#F8FAFC" height="986.3359" style="stroke:#181818;stroke-width:1;" width="10" x="91.395" y="131.5938"/></g><g><title>Shop UI .member picker.</title><rect fill="#000000" fill-opacity="0.00000" height="1004.3359" width="8" x="456.1489" y="123.5938"/><line style="stroke:#94A3B8;stroke-width:0.5;stroke-dasharray:5,5;" x1="459.6489" x2="459.6489" y1="123.5938" y2="1127.9297"/></g><g><title/><rect fill="#F8FAFC" height="965.2031" style="stroke:#181818;stroke-width:1;" width="10" x="454.6489" y="152.7266"/></g><g><title>HTTP API</title><rect fill="#000000" fill-opacity="0.00000" height="1004.3359" width="8" x="830.0479" y="123.5938"/><line style="stroke:#94A3B8;stroke-width:0.5;stroke-dasharray:5,5;" x1="833.5479" x2="833.5479" y1="123.5938" y2="1127.9297"/></g><g><title/><rect fill="#F8FAFC" height="920.9375" style="stroke:#181818;stroke-width:1;" width="10" x="828.5479" y="196.9922"/></g><g><title>Policy . RBAC</title><rect fill="#000000" fill-opacity="0.00000" height="1004.3359" width="8" x="1189.1841" y="123.5938"/><line style="stroke:#94A3B8;stroke-width:0.5;stroke-dasharray:5,5;" x1="1192.6841" x2="1192.6841" y1="123.5938" y2="1127.9297"/></g><g><title/><rect fill="#F8FAFC" height="29.1328" style="stroke:#181818;stroke-width:1;" width="10" x="1187.6841" y="404.5938"/></g><g><title>Rewards domain</title><rect fill="#000000" fill-opacity="0.00000" height="1004.3359" width="8" x="1310.314" y="123.5938"/><line style="stroke:#94A3B8;stroke-width:0.5;stroke-dasharray:5,5;" x1="1313.814" x2="1313.814" y1="123.5938" y2="1127.9297"/></g><g><title/><rect fill="#F8FAFC" height="158.7969" style="stroke:#181818;stroke-width:1;" width="10" x="1308.814" y="776.3359"/></g><g><title>SQLite family aggregate</title><rect fill="#000000" fill-opacity="0.00000" height="1004.3359" width="8" x="1596.0435" y="123.5938"/><line style="stroke:#94A3B8;stroke-width:0.5;stroke-dasharray:5,5;" x1="1599.5435" x2="1599.5435" y1="123.5938" y2="1127.9297"/></g><g><title/><rect fill="#F8FAFC" height="29.1328" style="stroke:#181818;stroke-width:1;" width="10" x="1594.5435" y="226.125"/></g><g><title/><rect fill="#F8FAFC" height="29.1328" style="stroke:#181818;stroke-width:1;" width="10" x="1594.5435" y="979.3984"/></g><text fill="#0F172A" font-family="'DejaVu Sans'" font-size="14" lengthAdjust="spacing" textLength="166.79" x="10" y="120.292">Parent (OWNER/ADMIN)</text><ellipse cx="96.395" cy="55.7969" fill="#FFFFFF" rx="8" ry="8" style="stroke:#64748B;stroke-width:0.5;"/><path d="M96.395,63.7969 L96.395,90.7969 M83.395,71.7969 L109.395,71.7969 M96.395,90.7969 L83.395,105.7969 M96.395,90.7969 L109.395,105.7969" fill="none" style="stroke:#64748B;stroke-width:0.5;"/><text fill="#000000" font-family="'DejaVu Sans'" font-size="14" lengthAdjust="spacing" textLength="175.957" x="368.6704" y="120.292">Shop UI (member picker)</text><path d="M439.1489,79.2969 L439.1489,103.2969 M439.1489,91.2969 L456.1489,91.2969" fill="none" style="stroke:#181818;stroke-width:0.5;"/><ellipse cx="468.1489" cy="91.2969" fill="#E2E2F0" rx="12" ry="12" style="stroke:#181818;stroke-width:0.5;"/><text fill="#000000" font-family="'DejaVu Sans'" font-size="14" lengthAdjust="spacing" textLength="62.6719" x="799.2119" y="120.292">HTTP API</text><path d="M813.0479,79.2969 L813.0479,103.2969 M813.0479,91.2969 L830.0479,91.2969" fill="none" style="stroke:#181818;stroke-width:0.5;"/><ellipse cx="842.0479" cy="91.2969" fill="#E2E2F0" rx="12" ry="12" style="stroke:#181818;stroke-width:0.5;"/><text fill="#000000" font-family="'DejaVu Sans'" font-size="14" lengthAdjust="spacing" textLength="93.0713" x="1143.1484" y="120.292">Policy / RBAC</text><ellipse cx="1192.6841" cy="91.2969" fill="#E2E2F0" rx="12" ry="12" style="stroke:#181818;stroke-width:0.5;"/><polygon fill="#181818" points="1188.6841,79.2969,1194.6841,74.2969,1192.6841,79.2969,1194.6841,84.2969,1188.6841,79.2969" style="stroke:#181818;stroke-width:1;stroke-linejoin:miter;stroke-miterlimit:10;"/><text fill="#000000" font-family="'DejaVu Sans'" font-size="14" lengthAdjust="spacing" textLength="117.1885" x="1252.2197" y="120.292">Rewards domain</text><ellipse cx="1313.814" cy="91.2969" fill="#E2E2F0" rx="12" ry="12" style="stroke:#181818;stroke-width:0.5;"/><polygon fill="#181818" points="1309.814,79.2969,1315.814,74.2969,1313.814,79.2969,1315.814,84.2969,1309.814,79.2969" style="stroke:#181818;stroke-width:1;stroke-linejoin:miter;stroke-miterlimit:10;"/><text fill="#000000" font-family="'DejaVu Sans'" font-size="14" lengthAdjust="spacing" textLength="170.0986" x="1511.4941" y="120.292">SQLite family aggregate</text><path d="M1581.5435,71.2969 C1581.5435,61.2969 1599.5435,61.2969 1599.5435,61.2969 C1599.5435,61.2969 1617.5435,61.2969 1617.5435,71.2969 L1617.5435,97.2969 C1617.5435,107.2969 1599.5435,107.2969 1599.5435,107.2969 C1599.5435,107.2969 1581.5435,107.2969 1581.5435,97.2969 L1581.5435,71.2969" fill="#E2E2F0" style="stroke:#181818;stroke-width:0.5;"/><path d="M1581.5435,71.2969 C1581.5435,81.2969 1599.5435,81.2969 1599.5435,81.2969 C1599.5435,81.2969 1617.5435,81.2969 1617.5435,71.2969" fill="none" style="stroke:#181818;stroke-width:0.5;"/><text fill="#0F172A" font-family="'DejaVu Sans'" font-size="14" lengthAdjust="spacing" textLength="166.79" x="10" y="1200.9248">Parent (OWNER/ADMIN)</text><ellipse cx="96.395" cy="1136.4297" fill="#FFFFFF" rx="8" ry="8" style="stroke:#64748B;stroke-width:0.5;"/><path d="M96.395,1144.4297 L96.395,1171.4297 M83.395,1152.4297 L109.395,1152.4297 M96.395,1171.4297 L83.395,1186.4297 M96.395,1171.4297 L109.395,1186.4297" fill="none" style="stroke:#64748B;stroke-width:0.5;"/><text fill="#000000" font-family="'DejaVu Sans'" font-size="14" lengthAdjust="spacing" textLength="175.957" x="368.6704" y="1172.9248">Shop UI (member picker)</text><path d="M439.1489,1131.9297 L439.1489,1155.9297 M439.1489,1143.9297 L456.1489,1143.9297" fill="none" style="stroke:#181818;stroke-width:0.5;"/><ellipse cx="468.1489" cy="1143.9297" fill="#E2E2F0" rx="12" ry="12" style="stroke:#181818;stroke-width:0.5;"/><text fill="#000000" font-family="'DejaVu Sans'" font-size="14" lengthAdjust="spacing" textLength="62.6719" x="799.2119" y="1172.9248">HTTP API</text><path d="M813.0479,1131.9297 L813.0479,1155.9297 M813.0479,1143.9297 L830.0479,1143.9297" fill="none" style="stroke:#181818;stroke-width:0.5;"/><ellipse cx="842.0479" cy="1143.9297" fill="#E2E2F0" rx="12" ry="12" style="stroke:#181818;stroke-width:0.5;"/><text fill="#000000" font-family="'DejaVu Sans'" font-size="14" lengthAdjust="spacing" textLength="93.0713" x="1143.1484" y="1172.9248">Policy / RBAC</text><ellipse cx="1192.6841" cy="1143.9297" fill="#E2E2F0" rx="12" ry="12" style="stroke:#181818;stroke-width:0.5;"/><polygon fill="#181818" points="1188.6841,1131.9297,1194.6841,1126.9297,1192.6841,1131.9297,1194.6841,1136.9297,1188.6841,1131.9297" style="stroke:#181818;stroke-width:1;stroke-linejoin:miter;stroke-miterlimit:10;"/><text fill="#000000" font-family="'DejaVu Sans'" font-size="14" lengthAdjust="spacing" textLength="117.1885" x="1252.2197" y="1172.9248">Rewards domain</text><ellipse cx="1313.814" cy="1143.9297" fill="#E2E2F0" rx="12" ry="12" style="stroke:#181818;stroke-width:0.5;"/><polygon fill="#181818" points="1309.814,1131.9297,1315.814,1126.9297,1313.814,1131.9297,1315.814,1136.9297,1309.814,1131.9297" style="stroke:#181818;stroke-width:1;stroke-linejoin:miter;stroke-miterlimit:10;"/><text fill="#000000" font-family="'DejaVu Sans'" font-size="14" lengthAdjust="spacing" textLength="170.0986" x="1511.4941" y="1186.9248">SQLite family aggregate</text><path d="M1581.5435,1137.9297 C1581.5435,1127.9297 1599.5435,1127.9297 1599.5435,1127.9297 C1599.5435,1127.9297 1617.5435,1127.9297 1617.5435,1137.9297 L1617.5435,1163.9297 C1617.5435,1173.9297 1599.5435,1173.9297 1599.5435,1173.9297 C1599.5435,1173.9297 1581.5435,1173.9297 1581.5435,1163.9297 L1581.5435,1137.9297" fill="#E2E2F0" style="stroke:#181818;stroke-width:0.5;"/><path d="M1581.5435,1137.9297 C1581.5435,1147.9297 1599.5435,1147.9297 1599.5435,1147.9297 C1599.5435,1147.9297 1617.5435,1147.9297 1617.5435,1137.9297" fill="none" style="stroke:#181818;stroke-width:0.5;"/><polygon fill="#475569" points="442.6489,148.7266,452.6489,152.7266,442.6489,156.7266,446.6489,152.7266" style="stroke:#475569;stroke-width:1;stroke-linejoin:miter;stroke-miterlimit:10;"/><line style="stroke:#475569;stroke-width:1;" x1="101.395" x2="448.6489" y1="152.7266" y2="152.7266"/><text fill="#000000" font-family="'DejaVu Sans'" font-size="13" font-weight="700" lengthAdjust="spacing" textLength="9.0454" x="108.395" y="147.6606">1</text><text fill="#000000" font-family="'DejaVu Sans'" font-size="13" lengthAdjust="spacing" textLength="213.9224" x="121.4404" y="147.6606">buy reward for selected member</text><polygon fill="#475569" points="816.5479,192.9922,826.5479,196.9922,816.5479,200.9922,820.5479,196.9922" style="stroke:#475569;stroke-width:1;stroke-linejoin:miter;stroke-miterlimit:10;"/><line style="stroke:#475569;stroke-width:1;" x1="464.6489" x2="822.5479" y1="196.9922" y2="196.9922"/><text fill="#000000" font-family="'DejaVu Sans'" font-size="13" font-weight="700" lengthAdjust="spacing" textLength="9.0454" x="471.6489" y="184.3599">2</text><text fill="#000000" font-family="'DejaVu Sans'" font-size="13" lengthAdjust="spacing" textLength="183.6377" x="484.6943" y="176.7935">POST /api/rewards/purchase</text><text fill="#000000" font-family="'DejaVu Sans'" font-size="13" lengthAdjust="spacing" textLength="309.5117" x="484.6943" y="191.9263">{rewardId, targetUserId?, revision, mutationId}</text><polygon fill="#475569" points="1582.5435,222.125,1592.5435,226.125,1582.5435,230.125,1586.5435,226.125" style="stroke:#475569;stroke-width:1;stroke-linejoin:miter;stroke-miterlimit:10;"/><line style="stroke:#475569;stroke-width:1;" x1="838.5479" x2="1588.5435" y1="226.125" y2="226.125"/><text fill="#000000" font-family="'DejaVu Sans'" font-size="13" font-weight="700" lengthAdjust="spacing" textLength="9.0454" x="845.5479" y="221.0591">3</text><text fill="#000000" font-family="'DejaVu Sans'" font-size="13" lengthAdjust="spacing" textLength="291.1543" x="858.5933" y="221.0591">read mutation receipt + actor + family state</text><polygon fill="#475569" points="849.5479,251.2578,839.5479,255.2578,849.5479,259.2578,845.5479,255.2578" style="stroke:#475569;stroke-width:1;stroke-linejoin:miter;stroke-miterlimit:10;"/><line style="stroke:#475569;stroke-width:1;stroke-dasharray:2,2;" x1="843.5479" x2="1593.5435" y1="255.2578" y2="255.2578"/><text fill="#000000" font-family="'DejaVu Sans'" font-size="13" font-weight="700" lengthAdjust="spacing" textLength="9.0454" x="855.5479" y="250.1919">4</text><text fill="#000000" font-family="'DejaVu Sans'" font-size="13" lengthAdjust="spacing" textLength="241.0713" x="868.5933" y="250.1919">duplicate receipt | current aggregate</text><path d="M61.395,267.2578 L125.8379,267.2578 L125.8379,274.3906 L115.8379,284.3906 L61.395,284.3906 L61.395,267.2578" fill="#F8FAFC" style="stroke:#CBD5E1;stroke-width:1.5;"/><rect fill="none" height="836.6719" style="stroke:#CBD5E1;stroke-width:1.5;" width="1584.1484" x="61.395" y="267.2578"/><text fill="#000000" font-family="'DejaVu Sans'" font-size="13" font-weight="700" lengthAdjust="spacing" textLength="19.4429" x="76.395" y="280.3247">alt</text><text fill="#334155" font-family="'DejaVu Sans'" font-size="11" font-weight="700" lengthAdjust="spacing" textLength="177.6113" x="140.8379" y="279.4683">[exact duplicate mutationId]</text><line style="stroke:#CBD5E1;stroke-width:1;stroke-dasharray:2,2;" x1="61.395" x2="1645.5435" y1="363.6563" y2="363.6563"/><text fill="#334155" font-family="'DejaVu Sans'" font-size="11" font-weight="700" lengthAdjust="spacing" textLength="99.4673" x="66.395" y="375.8667">[new command]</text><polygon fill="#475569" points="475.6489,311.5234,465.6489,315.5234,475.6489,319.5234,471.6489,315.5234" style="stroke:#475569;stroke-width:1;stroke-linejoin:miter;stroke-miterlimit:10;"/><line style="stroke:#475569;stroke-width:1;stroke-dasharray:2,2;" x1="469.6489" x2="827.5479" y1="315.5234" y2="315.5234"/><text fill="#000000" font-family="'DejaVu Sans'" font-size="13" font-weight="700" lengthAdjust="spacing" textLength="9.0454" x="481.6489" y="310.4575">5</text><text fill="#000000" font-family="'DejaVu Sans'" font-size="13" lengthAdjust="spacing" textLength="326.8535" x="494.6943" y="310.4575">stored result; no second XP debit, no new revision</text><polygon fill="#475569" points="112.395,340.6563,102.395,344.6563,112.395,348.6563,108.395,344.6563" style="stroke:#475569;stroke-width:1;stroke-linejoin:miter;stroke-miterlimit:10;"/><line style="stroke:#475569;stroke-width:1;stroke-dasharray:2,2;" x1="106.395" x2="453.6489" y1="344.6563" y2="344.6563"/><text fill="#000000" font-family="'DejaVu Sans'" font-size="13" font-weight="700" lengthAdjust="spacing" textLength="9.0454" x="118.395" y="339.5903">6</text><text fill="#000000" font-family="'DejaVu Sans'" font-size="13" lengthAdjust="spacing" textLength="316.2085" x="131.4404" y="339.5903">&#1089;&#1086;&#1089;&#1090;&#1086;&#1103;&#1085;&#1080;&#1077; &#1073;&#1077;&#1079; &#1080;&#1079;&#1084;&#1077;&#1085;&#1077;&#1085;&#1080;&#1081; (&#1090;&#1080;&#1093;&#1086;&#1077; &#1086;&#1073;&#1085;&#1086;&#1074;&#1083;&#1077;&#1085;&#1080;&#1077;)</text><polygon fill="#475569" points="1175.6841,400.5938,1185.6841,404.5938,1175.6841,408.5938,1179.6841,404.5938" style="stroke:#475569;stroke-width:1;stroke-linejoin:miter;stroke-miterlimit:10;"/><line style="stroke:#475569;stroke-width:1;" x1="838.5479" x2="1181.6841" y1="404.5938" y2="404.5938"/><text fill="#000000" font-family="'DejaVu Sans'" font-size="13" font-weight="700" lengthAdjust="spacing" textLength="9.0454" x="845.5479" y="399.5278">7</text><text fill="#000000" font-family="'DejaVu Sans'" font-size="13" lengthAdjust="spacing" textLength="317.0908" x="858.5933" y="399.5278">assertCanActOnBehalf(actor, targetUserId, data)</text><polygon fill="#475569" points="849.5479,429.7266,839.5479,433.7266,849.5479,437.7266,845.5479,433.7266" style="stroke:#475569;stroke-width:1;stroke-linejoin:miter;stroke-miterlimit:10;"/><line style="stroke:#475569;stroke-width:1;stroke-dasharray:2,2;" x1="843.5479" x2="1186.6841" y1="433.7266" y2="433.7266"/><text fill="#000000" font-family="'DejaVu Sans'" font-size="13" font-weight="700" lengthAdjust="spacing" textLength="9.0454" x="855.5479" y="428.6606">8</text><text fill="#000000" font-family="'DejaVu Sans'" font-size="13" lengthAdjust="spacing" textLength="145.3169" x="868.5933" y="428.6606">allowed | DomainError</text><path d="M80.395,445.7266 L144.8379,445.7266 L144.8379,452.8594 L134.8379,462.8594 L80.395,462.8594 L80.395,445.7266" fill="#F8FAFC" style="stroke:#CBD5E1;stroke-width:1.5;"/><rect fill="none" height="644.2031" style="stroke:#CBD5E1;stroke-width:1.5;" width="1540.1484" x="80.395" y="445.7266"/><text fill="#000000" font-family="'DejaVu Sans'" font-size="13" font-weight="700" lengthAdjust="spacing" textLength="19.4429" x="95.395" y="458.7935">alt</text><text fill="#334155" font-family="'DejaVu Sans'" font-size="11" font-weight="700" lengthAdjust="spacing" textLength="298.1763" x="159.8379" y="457.937">[targetUserId set and actor is not family admin]</text><line style="stroke:#CBD5E1;stroke-width:1;stroke-dasharray:2,2;" x1="80.395" x2="1620.5435" y1="542.125" y2="542.125"/><text fill="#334155" font-family="'DejaVu Sans'" font-size="11" font-weight="700" lengthAdjust="spacing" textLength="282.4175" x="85.395" y="554.3354">[target missing, inactive or role is not CHILD]</text><line style="stroke:#CBD5E1;stroke-width:1;stroke-dasharray:2,2;" x1="80.395" x2="1620.5435" y1="631.1953" y2="631.1953"/><text fill="#334155" font-family="'DejaVu Sans'" font-size="11" font-weight="700" lengthAdjust="spacing" textLength="217.8838" x="85.395" y="643.4058">[beneficiary XP below reward cost]</text><line style="stroke:#CBD5E1;stroke-width:1;stroke-dasharray:2,2;" x1="80.395" x2="1620.5435" y1="720.2656" y2="720.2656"/><text fill="#334155" font-family="'DejaVu Sans'" font-size="11" font-weight="700" lengthAdjust="spacing" textLength="118.814" x="85.395" y="732.4761">[purchase allowed]</text><polygon fill="#475569" points="475.6489,489.9922,465.6489,493.9922,475.6489,497.9922,471.6489,493.9922" style="stroke:#475569;stroke-width:1;stroke-linejoin:miter;stroke-miterlimit:10;"/><line style="stroke:#475569;stroke-width:1;stroke-dasharray:2,2;" x1="469.6489" x2="827.5479" y1="493.9922" y2="493.9922"/><text fill="#000000" font-family="'DejaVu Sans'" font-size="13" font-weight="700" lengthAdjust="spacing" textLength="9.0454" x="481.6489" y="488.9263">9</text><text fill="#000000" font-family="'DejaVu Sans'" font-size="13" lengthAdjust="spacing" textLength="189.8774" x="494.6943" y="488.9263">403 ON_BEHALF_FORBIDDEN</text><polygon fill="#475569" points="112.395,519.125,102.395,523.125,112.395,527.125,108.395,523.125" style="stroke:#475569;stroke-width:1;stroke-linejoin:miter;stroke-miterlimit:10;"/><line style="stroke:#475569;stroke-width:1;stroke-dasharray:2,2;" x1="106.395" x2="453.6489" y1="523.125" y2="523.125"/><text fill="#000000" font-family="'DejaVu Sans'" font-size="13" font-weight="700" lengthAdjust="spacing" textLength="18.0908" x="118.395" y="518.0591">10</text><text fill="#000000" font-family="'DejaVu Sans'" font-size="13" lengthAdjust="spacing" textLength="183.8599" x="140.4858" y="518.0591">&#1090;&#1086;&#1089;&#1090; &#171;&#1053;&#1077;&#1076;&#1086;&#1089;&#1090;&#1072;&#1090;&#1086;&#1095;&#1085;&#1086; &#1087;&#1088;&#1072;&#1074;&#187;</text><polygon fill="#475569" points="475.6489,579.0625,465.6489,583.0625,475.6489,587.0625,471.6489,583.0625" style="stroke:#475569;stroke-width:1;stroke-linejoin:miter;stroke-miterlimit:10;"/><line style="stroke:#475569;stroke-width:1;stroke-dasharray:2,2;" x1="469.6489" x2="827.5479" y1="583.0625" y2="583.0625"/><text fill="#000000" font-family="'DejaVu Sans'" font-size="13" font-weight="700" lengthAdjust="spacing" textLength="18.0908" x="481.6489" y="577.9966">11</text><text fill="#000000" font-family="'DejaVu Sans'" font-size="13" lengthAdjust="spacing" textLength="232.21" x="503.7397" y="577.9966">409 TARGET_MEMBER_NOT_FOUND</text><polygon fill="#475569" points="112.395,608.1953,102.395,612.1953,112.395,616.1953,108.395,612.1953" style="stroke:#475569;stroke-width:1;stroke-linejoin:miter;stroke-miterlimit:10;"/><line style="stroke:#475569;stroke-width:1;stroke-dasharray:2,2;" x1="106.395" x2="453.6489" y1="612.1953" y2="612.1953"/><text fill="#000000" font-family="'DejaVu Sans'" font-size="13" font-weight="700" lengthAdjust="spacing" textLength="18.0908" x="118.395" y="607.1294">12</text><text fill="#000000" font-family="'DejaVu Sans'" font-size="13" lengthAdjust="spacing" textLength="158.3105" x="140.4858" y="607.1294">&#1090;&#1086;&#1089;&#1090; &#1089; &#1090;&#1077;&#1082;&#1089;&#1090;&#1086;&#1084; &#1086;&#1096;&#1080;&#1073;&#1082;&#1080;</text><polygon fill="#475569" points="475.6489,668.1328,465.6489,672.1328,475.6489,676.1328,471.6489,672.1328" style="stroke:#475569;stroke-width:1;stroke-linejoin:miter;stroke-miterlimit:10;"/><line style="stroke:#475569;stroke-width:1;stroke-dasharray:2,2;" x1="469.6489" x2="827.5479" y1="672.1328" y2="672.1328"/><text fill="#000000" font-family="'DejaVu Sans'" font-size="13" font-weight="700" lengthAdjust="spacing" textLength="18.0908" x="481.6489" y="667.0669">13</text><text fill="#000000" font-family="'DejaVu Sans'" font-size="13" lengthAdjust="spacing" textLength="144.1235" x="503.7397" y="667.0669">409 NOT_ENOUGH_XP</text><polygon fill="#475569" points="112.395,697.2656,102.395,701.2656,112.395,705.2656,108.395,701.2656" style="stroke:#475569;stroke-width:1;stroke-linejoin:miter;stroke-miterlimit:10;"/><line style="stroke:#475569;stroke-width:1;stroke-dasharray:2,2;" x1="106.395" x2="453.6489" y1="701.2656" y2="701.2656"/><text fill="#000000" font-family="'DejaVu Sans'" font-size="13" font-weight="700" lengthAdjust="spacing" textLength="18.0908" x="118.395" y="696.1997">14</text><text fill="#000000" font-family="'DejaVu Sans'" font-size="13" lengthAdjust="spacing" textLength="205.0293" x="140.4858" y="696.1997">&#1090;&#1086;&#1089;&#1090; &#171;&#1059; {&#1080;&#1084;&#1103;} &#1085;&#1077; &#1093;&#1074;&#1072;&#1090;&#1072;&#1077;&#1090; XP&#187;</text><polygon fill="#475569" points="1296.814,772.3359,1306.814,776.3359,1296.814,780.3359,1300.814,776.3359" style="stroke:#475569;stroke-width:1;stroke-linejoin:miter;stroke-miterlimit:10;"/><line style="stroke:#475569;stroke-width:1;" x1="838.5479" x2="1302.814" y1="776.3359" y2="776.3359"/><text fill="#000000" font-family="'DejaVu Sans'" font-size="13" font-weight="700" lengthAdjust="spacing" textLength="18.0908" x="845.5479" y="763.7036">15</text><text fill="#000000" font-family="'DejaVu Sans'" font-size="13" lengthAdjust="spacing" textLength="255.3345" x="867.6387" y="756.1372">purchaseReward(data, rewardId, actor,</text><text fill="#000000" font-family="'DejaVu Sans'" font-size="13" lengthAdjust="spacing" textLength="103.0859" x="867.6387" y="771.27">{targetUserId})</text><line style="stroke:#475569;stroke-width:1;" x1="1318.814" x2="1360.814" y1="820.6016" y2="820.6016"/><line style="stroke:#475569;stroke-width:1;" x1="1360.814" x2="1360.814" y1="820.6016" y2="833.6016"/><line style="stroke:#475569;stroke-width:1;" x1="1319.814" x2="1360.814" y1="833.6016" y2="833.6016"/><polygon fill="#475569" points="1329.814,829.6016,1319.814,833.6016,1329.814,837.6016,1325.814,833.6016" style="stroke:#475569;stroke-width:1;stroke-linejoin:miter;stroke-miterlimit:10;"/><text fill="#000000" font-family="'DejaVu Sans'" font-size="13" font-weight="700" lengthAdjust="spacing" textLength="18.0908" x="1325.814" y="807.9692">16</text><text fill="#000000" font-family="'DejaVu Sans'" font-size="13" lengthAdjust="spacing" textLength="244.6387" x="1347.9048" y="800.4028">beneficiary = targetUserId ?? actor.id</text><text fill="#000000" font-family="'DejaVu Sans'" font-size="13" lengthAdjust="spacing" textLength="213.186" x="1347.9048" y="815.5356">debit beneficiary XP, recalc level</text><line style="stroke:#475569;stroke-width:1;" x1="1318.814" x2="1360.814" y1="893" y2="893"/><line style="stroke:#475569;stroke-width:1;" x1="1360.814" x2="1360.814" y1="893" y2="906"/><line style="stroke:#475569;stroke-width:1;" x1="1319.814" x2="1360.814" y1="906" y2="906"/><polygon fill="#475569" points="1329.814,902,1319.814,906,1329.814,910,1325.814,906" style="stroke:#475569;stroke-width:1;stroke-linejoin:miter;stroke-miterlimit:10;"/><text fill="#000000" font-family="'DejaVu Sans'" font-size="13" font-weight="700" lengthAdjust="spacing" textLength="18.0908" x="1325.814" y="872.8013">17</text><text fill="#000000" font-family="'DejaVu Sans'" font-size="13" lengthAdjust="spacing" textLength="243.3564" x="1347.9048" y="857.6685">inventory item ownerId = beneficiary</text><text fill="#000000" font-family="'DejaVu Sans'" font-size="13" lengthAdjust="spacing" textLength="212.9766" x="1347.9048" y="872.8013">RewardLog userId = beneficiary,</text><text fill="#000000" font-family="'DejaVu Sans'" font-size="13" lengthAdjust="spacing" textLength="203.9502" x="1347.9048" y="887.9341">description notes acting parent</text><polygon fill="#475569" points="849.5479,931.1328,839.5479,935.1328,849.5479,939.1328,845.5479,935.1328" style="stroke:#475569;stroke-width:1;stroke-linejoin:miter;stroke-miterlimit:10;"/><line style="stroke:#475569;stroke-width:1;stroke-dasharray:2,2;" x1="843.5479" x2="1307.814" y1="935.1328" y2="935.1328"/><text fill="#000000" font-family="'DejaVu Sans'" font-size="13" font-weight="700" lengthAdjust="spacing" textLength="18.0908" x="855.5479" y="930.0669">18</text><text fill="#000000" font-family="'DejaVu Sans'" font-size="13" lengthAdjust="spacing" textLength="200.1226" x="877.6387" y="930.0669">next aggregate + event(actor)</text><polygon fill="#475569" points="1582.5435,975.3984,1592.5435,979.3984,1582.5435,983.3984,1586.5435,979.3984" style="stroke:#475569;stroke-width:1;stroke-linejoin:miter;stroke-miterlimit:10;"/><line style="stroke:#475569;stroke-width:1;" x1="838.5479" x2="1588.5435" y1="979.3984" y2="979.3984"/><text fill="#000000" font-family="'DejaVu Sans'" font-size="13" font-weight="700" lengthAdjust="spacing" textLength="18.0908" x="845.5479" y="966.7661">19</text><text fill="#000000" font-family="'DejaVu Sans'" font-size="13" lengthAdjust="spacing" textLength="280.6426" x="867.6387" y="959.1997">BEGIN; members + inventory + reward log</text><text fill="#000000" font-family="'DejaVu Sans'" font-size="13" lengthAdjust="spacing" textLength="199.6909" x="867.6387" y="974.3325">+ event + receipt; revision +1</text><polygon fill="#475569" points="849.5479,1004.5313,839.5479,1008.5313,849.5479,1012.5313,845.5479,1008.5313" style="stroke:#475569;stroke-width:1;stroke-linejoin:miter;stroke-miterlimit:10;"/><line style="stroke:#475569;stroke-width:1;stroke-dasharray:2,2;" x1="843.5479" x2="1593.5435" y1="1008.5313" y2="1008.5313"/><text fill="#000000" font-family="'DejaVu Sans'" font-size="13" font-weight="700" lengthAdjust="spacing" textLength="18.0908" x="855.5479" y="1003.4653">20</text><text fill="#000000" font-family="'DejaVu Sans'" font-size="13" lengthAdjust="spacing" textLength="144.0093" x="877.6387" y="1003.4653">COMMIT, new revision</text><polygon fill="#475569" points="475.6489,1048.7969,465.6489,1052.7969,475.6489,1056.7969,471.6489,1052.7969" style="stroke:#475569;stroke-width:1;stroke-linejoin:miter;stroke-miterlimit:10;"/><line style="stroke:#475569;stroke-width:1;stroke-dasharray:2,2;" x1="469.6489" x2="827.5479" y1="1052.7969" y2="1052.7969"/><text fill="#000000" font-family="'DejaVu Sans'" font-size="13" font-weight="700" lengthAdjust="spacing" textLength="18.0908" x="481.6489" y="1040.1646">21</text><text fill="#000000" font-family="'DejaVu Sans'" font-size="13" lengthAdjust="spacing" textLength="120.98" x="503.7397" y="1032.5981">authoritative state</text><text fill="#000000" font-family="'DejaVu Sans'" font-size="13" lengthAdjust="spacing" textLength="197.9897" x="503.7397" y="1047.731">(item in beneficiary backpack)</text><polygon fill="#475569" points="112.395,1077.9297,102.395,1081.9297,112.395,1085.9297,108.395,1081.9297" style="stroke:#475569;stroke-width:1;stroke-linejoin:miter;stroke-miterlimit:10;"/><line style="stroke:#475569;stroke-width:1;stroke-dasharray:2,2;" x1="106.395" x2="453.6489" y1="1081.9297" y2="1081.9297"/><text fill="#000000" font-family="'DejaVu Sans'" font-size="13" font-weight="700" lengthAdjust="spacing" textLength="18.0908" x="118.395" y="1076.8638">22</text><text fill="#000000" font-family="'DejaVu Sans'" font-size="13" lengthAdjust="spacing" textLength="210.8057" x="140.4858" y="1076.8638">&#171;&#1050;&#1091;&#1087;&#1083;&#1077;&#1085;&#1086; &#1076;&#1083;&#1103; {&#1080;&#1084;&#1103; &#1088;&#1077;&#1073;&#1105;&#1085;&#1082;&#1072;}&#187;</text><g class="footer" data-source-line="6"><text fill="#888888" font-family="'DejaVu Sans'" font-size="10" lengthAdjust="spacing" textLength="431.5723" x="632.5103" y="1218.5088">Contract: beneficiary (CHILD) pays XP and owns the item; actor stays in the audit trail</text></g><?plantuml-src XLPDJoCt6BxFhtYNKo82QTLUkcX12GaG2P8q19K3KkJCE8d5Z9rwFB3fBjAoLTNUKAMUAlNKOo-0DbhA0YljBt3-Gdz9NzkPP49fUvXendu_7p_lupmRIjAF22WglWCb4-ezOzmFau32wcgn4wjHI3j3AOB4LvsOVhiwJABGyqYY14-YBfMUOYgai4MYjYJ-CVprvXUGz9J808Q9z0SafY0uTEc0X3qGFI3W3rWOm2bJ0v4eQDEGzYM9l9uGYahO55nX9FKSVJZjCPyHEOBSvavjjvA78Hd5SDW4mWCGfpm6DQ3058tM07s4X5WP2yRj1aa2fh0jmapDTd-fIIJb2dADR-hLLh5KsQlLyqj0OkVlTKN20vDnQNyWXd1GWrn4JQCmPFunbSusOHd3dNQx2QLcpKKPCiytBOWGSucG-ICeGgjSshJRialy-NxB0XL382B2k3DmIrv05EaQy9Rslzx51g578XQEWFJxalQ9ejOwwDg-s0akJ1jmRQwiOus062QZz3Xw1Xq4srSq0DVJt1SRGdlqmlhHhTdORqCHtulJUehfOHxnLswf5XH04TcdwY2ciXPi533H2OkPu0M84aKKljM2iqnz28q9Zrc2BYQHb0GpI_poAHigM9uUv7BQCPweelCes39whynA3P8XWcnsqWYlmK-aFUGPM5v0im4y4YgWBt4fupwlsGCRUoK5CSPw43D9uoHKQy05ueXd61WY1hJBLC6iSNewGm0Z92w0Q-OvJCxrm-HyyXP_B_Izlj5Zq5TwhDy3lh_NT_XwRvyR_IVaqEvcyeD-C5OFQ7UFlzVwmzHWdFTeYDGm6NqHHJWCQSdhbc6OZyHuAcgJy9Al6hninozdYrayjW8OfkMDVmgGvIYuG7ESIHYAKqJXDLGiMwjI8ji0CiXQHnC9qStcGBYKdLW71eiHBZKZT10nWzSZpB_yx0jer3lbwavfTwkprMYLQvLAjMuD7qFxra4Bd_xGlo54xwP8NzgD7mrue3zEtkXBVVtf0qQmuBa28M9np7Y_W99X-q2rae33ITCohV0yLTzNq2wrjgljpbvrhrnjTUgDDjPvKA_yPusJS_C-rhUE3FeE3tZo4nxgbRxLDsbnMUb3adKfOf_EiIzYzNGzfe9glN6mlTCvRFuVKh_3AynwDxau0yCyGBfTMyWkzHWj3fjpg6P2FkN0FFjwgbSOFBLoefOpj2h0N2iSzr0-iimuoxjOCmPDrSyiff4NacI1UR58ieqDbsEL1KVSZkKZ64qrFWbz2Ea93Vyz1-CdA1u2VSp5OguP6_z5DjmHTstkYZuayJ_t2wQ4s9UeHqRSa4ZKtZ18DRp3Z3Wjvf-D6QSlCxg5AaXDCMvo7LZPWSl0bLNMSdMxLb-RYdoCGUOjBQSq2aN_Y4_3srKhdcip2OFbpnVF1dNJfi-AxsPZRw_MBZpMleKYftuBRCN_3mCXcH5Sd3Yhy4SyP-5cVE7OK5AEX_Zad-8pqlZNoVVwurGPSSpVwG-JYvJPW3C_rbUJdt7lLb-UEKQZM9edUoMOcodpcInysMH_0m00?></g></svg>