<svg xmlns="http://www.w3.org/2000/svg" xmlns:xlink="http://www.w3.org/1999/xlink" contentStyleType="text/css" data-diagram-type="DESCRIPTION" height="1320px" preserveAspectRatio="none" style="width:1915px;height:1320px;background:#FFFFFF;" version="1.1" viewBox="0 0 1915 1320" width="1915px" zoomAndPan="magnify"><?plantuml 1.2026.6?><defs/><g><g class="title" data-source-line="1"><text fill="#000000" font-family="'DejaVu Sans'" font-size="14" font-weight="700" lengthAdjust="spacing" textLength="232.292" x="837.854" y="22.9951">FamTrack - LLD &#1082;&#1086;&#1084;&#1087;&#1086;&#1085;&#1077;&#1085;&#1090;&#1086;&#1074;</text><text fill="#000000" font-family="'DejaVu Sans'" font-size="14" font-weight="700" lengthAdjust="spacing" textLength="139.501" x="884.2495" y="39.292">&#1044;&#1072;&#1090;&#1072;: 2026-08-10</text><text fill="#000000" font-family="'DejaVu Sans'" font-size="14" font-weight="700" lengthAdjust="spacing" textLength="358.7979" x="774.6011" y="55.5889">&#1048;&#1089;&#1090;&#1086;&#1095;&#1085;&#1080;&#1082;: &#1090;&#1077;&#1082;&#1091;&#1097;&#1080;&#1081; worktree &#1087;&#1086;&#1089;&#1083;&#1077; ADR 006</text></g><!--cluster Browser--><g class="cluster" data-qualified-name="Browser" data-source-line="18" id="ent0001"><rect fill="#E0F2FE" height="635" rx="5" ry="5" style="stroke:#181818;stroke-width:1;" width="585" x="586" y="76.8906"/><text fill="#000000" font-family="'DejaVu Sans'" font-size="14" font-weight="700" lengthAdjust="spacing" textLength="138.9814" x="809.0093" y="91.8857">Browser Mini App</text></g><!--cluster Server--><g class="cluster" data-qualified-name="Server" data-source-line="27" id="ent0008"><rect fill="#EDE9FE" height="275" rx="5" ry="5" style="stroke:#181818;stroke-width:1;" width="1164" x="7" y="760.8906"/><text fill="#000000" font-family="'DejaVu Sans'" font-size="14" font-weight="700" lengthAdjust="spacing" textLength="113.1621" x="532.4189" y="775.8857">HTTP Backend</text></g><!--cluster Persistence--><g class="cluster" data-qualified-name="Persistence" data-source-line="36" id="ent0015"><rect fill="#FFF7ED" height="272" rx="5" ry="5" style="stroke:#181818;stroke-width:1;" width="706" x="1195" y="921.8906"/><text fill="#000000" font-family="'DejaVu Sans'" font-size="14" font-weight="700" lengthAdjust="spacing" textLength="92.0732" x="1501.9634" y="936.8857">Persistence</text></g><!--cluster Integrations--><g class="cluster" data-qualified-name="Integrations" data-source-line="43" id="ent0020"><rect fill="#DCFCE7" height="284.5" rx="5" ry="5" style="stroke:#181818;stroke-width:1;" width="703" x="1195" y="581.8906"/><text fill="#000000" font-family="'DejaVu Sans'" font-size="14" font-weight="700" lengthAdjust="spacing" textLength="97.1455" x="1497.9272" y="596.8857">Integrations</text></g><!--entity Screens--><g class="entity" data-qualified-name="Browser.Screens" data-source-line="19" id="ent0002"><rect fill="#F8FAFC" height="95.1875" rx="5" ry="5" style="stroke:#334155;stroke-width:0.5;" width="277.8838" x="621" y="111.8906"/><rect fill="#F8FAFC" height="10" style="stroke:#334155;stroke-width:0.5;" width="15" x="878.8838" y="116.8906"/><rect fill="#F8FAFC" height="2" style="stroke:#334155;stroke-width:0.5;" width="4" x="876.8838" y="118.8906"/><rect fill="#F8FAFC" height="2" style="stroke:#334155;stroke-width:0.5;" width="4" x="876.8838" y="122.8906"/><text fill="#000000" font-family="'DejaVu Sans'" font-size="14" lengthAdjust="spacing" textLength="133.2598" x="636" y="144.8857">&#1069;&#1082;&#1088;&#1072;&#1085;&#1085;&#1099;&#1077; &#1084;&#1086;&#1076;&#1091;&#1083;&#1080;</text><text fill="#000000" font-family="'DejaVu Sans'" font-size="14" lengthAdjust="spacing" textLength="237.8838" x="636" y="161.1826">`dashboard.ui.tsx`, `tasks.ui.tsx`,</text><text fill="#000000" font-family="'DejaVu Sans'" font-size="14" lengthAdjust="spacing" textLength="221.4775" x="636" y="177.4795">`finance.ui.tsx`, `family.ui.tsx`,</text><text fill="#000000" font-family="'DejaVu Sans'" font-size="14" lengthAdjust="spacing" textLength="225.3535" x="636" y="193.7764">`shopping.ui.tsx`, `notes.ui.tsx`</text></g><!--entity Store--><g class="entity" data-qualified-name="Browser.Store" data-source-line="20" id="ent0003"><rect fill="#F8FAFC" height="78.8906" rx="5" ry="5" style="stroke:#334155;stroke-width:0.5;" width="164.0723" x="752" y="283.8906"/><rect fill="#F8FAFC" height="10" style="stroke:#334155;stroke-width:0.5;" width="15" x="896.0723" y="288.8906"/><rect fill="#F8FAFC" height="2" style="stroke:#334155;stroke-width:0.5;" width="4" x="894.0723" y="290.8906"/><rect fill="#F8FAFC" height="2" style="stroke:#334155;stroke-width:0.5;" width="4" x="894.0723" y="294.8906"/><text fill="#000000" font-family="'DejaVu Sans'" font-size="14" lengthAdjust="spacing" textLength="89.4414" x="767" y="316.8857">useAppStore</text><text fill="#000000" font-family="'DejaVu Sans'" font-size="14" lengthAdjust="spacing" textLength="66.9512" x="767" y="333.1826">`store.ts`</text><text fill="#000000" font-family="'DejaVu Sans'" font-size="14" lengthAdjust="spacing" textLength="124.0723" x="767" y="349.4795">&#1089;&#1082;&#1074;&#1086;&#1079;&#1085;&#1099;&#1077; actions</text></g><!--entity Queries--><g class="entity" data-qualified-name="Browser.Queries" data-source-line="21" id="ent0004"><rect fill="#F8FAFC" height="78.8906" rx="5" ry="5" style="stroke:#334155;stroke-width:0.5;" width="245.96" x="853" y="439.8906"/><rect fill="#F8FAFC" height="10" style="stroke:#334155;stroke-width:0.5;" width="15" x="1078.96" y="444.8906"/><rect fill="#F8FAFC" height="2" style="stroke:#334155;stroke-width:0.5;" width="4" x="1076.96" y="446.8906"/><rect fill="#F8FAFC" height="2" style="stroke:#334155;stroke-width:0.5;" width="4" x="1076.96" y="450.8906"/><text fill="#000000" font-family="'DejaVu Sans'" font-size="14" lengthAdjust="spacing" textLength="132.959" x="868" y="472.8857">React Query hooks</text><text fill="#000000" font-family="'DejaVu Sans'" font-size="14" lengthAdjust="spacing" textLength="83.1592" x="868" y="489.1826">`queries.ts`</text><text fill="#000000" font-family="'DejaVu Sans'" font-size="14" lengthAdjust="spacing" textLength="205.96" x="868" y="505.4795">cache + optimistic mutations</text></g><!--entity ApiAdapter--><g class="entity" data-qualified-name="Browser.ApiAdapter" data-source-line="22" id="ent0005"><rect fill="#F8FAFC" height="78.8906" rx="5" ry="5" style="stroke:#334155;stroke-width:0.5;" width="212.6963" x="875.5" y="616.8906"/><rect fill="#F8FAFC" height="10" style="stroke:#334155;stroke-width:0.5;" width="15" x="1068.1963" y="621.8906"/><rect fill="#F8FAFC" height="2" style="stroke:#334155;stroke-width:0.5;" width="4" x="1066.1963" y="623.8906"/><rect fill="#F8FAFC" height="2" style="stroke:#334155;stroke-width:0.5;" width="4" x="1066.1963" y="627.8906"/><text fill="#000000" font-family="'DejaVu Sans'" font-size="14" lengthAdjust="spacing" textLength="101.6982" x="890.5" y="649.8857">ServerAdapter</text><text fill="#000000" font-family="'DejaVu Sans'" font-size="14" lengthAdjust="spacing" textLength="52.5889" x="890.5" y="666.1826">`api.ts`</text><text fill="#000000" font-family="'DejaVu Sans'" font-size="14" lengthAdjust="spacing" textLength="172.6963" x="890.5" y="682.4795">revision-aware API client</text></g><!--entity Models--><g class="entity" data-qualified-name="Browser.Models" data-source-line="23" id="ent0006"><rect fill="#F8FAFC" height="62.5938" rx="5" ry="5" style="stroke:#334155;stroke-width:0.5;" width="204.9785" x="602.5" y="447.8906"/><rect fill="#F8FAFC" height="10" style="stroke:#334155;stroke-width:0.5;" width="15" x="787.4785" y="452.8906"/><rect fill="#F8FAFC" height="2" style="stroke:#334155;stroke-width:0.5;" width="4" x="785.4785" y="454.8906"/><rect fill="#F8FAFC" height="2" style="stroke:#334155;stroke-width:0.5;" width="4" x="785.4785" y="458.8906"/><text fill="#000000" font-family="'DejaVu Sans'" font-size="14" lengthAdjust="spacing" textLength="109.6621" x="617.5" y="480.8857">Domain models</text><text fill="#000000" font-family="'DejaVu Sans'" font-size="14" lengthAdjust="spacing" textLength="164.9785" x="617.5" y="497.1826">`*.model.ts`, `types.ts`</text></g><!--entity TwaUtils--><g class="entity" data-qualified-name="Browser.TwaUtils" data-source-line="24" id="ent0007"><rect fill="#F8FAFC" height="62.5938" rx="5" ry="5" style="stroke:#334155;stroke-width:0.5;" width="203.5566" x="951" y="291.8906"/><rect fill="#F8FAFC" height="10" style="stroke:#334155;stroke-width:0.5;" width="15" x="1134.5566" y="296.8906"/><rect fill="#F8FAFC" height="2" style="stroke:#334155;stroke-width:0.5;" width="4" x="1132.5566" y="298.8906"/><rect fill="#F8FAFC" height="2" style="stroke:#334155;stroke-width:0.5;" width="4" x="1132.5566" y="302.8906"/><text fill="#000000" font-family="'DejaVu Sans'" font-size="14" lengthAdjust="spacing" textLength="163.5566" x="966" y="324.8857">Telegram WebApp utils</text><text fill="#000000" font-family="'DejaVu Sans'" font-size="14" lengthAdjust="spacing" textLength="60.6689" x="966" y="341.1826">`utils.ts`</text></g><!--entity Router--><g class="entity" data-qualified-name="Server.Router" data-source-line="28" id="ent0009"><rect fill="#F8FAFC" height="62.5938" rx="5" ry="5" style="stroke:#334155;stroke-width:0.5;" width="158.8154" x="906.5" y="795.8906"/><rect fill="#F8FAFC" height="10" style="stroke:#334155;stroke-width:0.5;" width="15" x="1045.3154" y="800.8906"/><rect fill="#F8FAFC" height="2" style="stroke:#334155;stroke-width:0.5;" width="4" x="1043.3154" y="802.8906"/><rect fill="#F8FAFC" height="2" style="stroke:#334155;stroke-width:0.5;" width="4" x="1043.3154" y="806.8906"/><text fill="#000000" font-family="'DejaVu Sans'" font-size="14" lengthAdjust="spacing" textLength="83.5762" x="921.5" y="828.8857">HTTP router</text><text fill="#000000" font-family="'DejaVu Sans'" font-size="14" lengthAdjust="spacing" textLength="118.8154" x="921.5" y="845.1826">`server/index.ts`</text></g><!--entity Auth--><g class="entity" data-qualified-name="Server.Auth" data-source-line="29" id="ent0010"><rect fill="#F8FAFC" height="62.5938" rx="5" ry="5" style="stroke:#334155;stroke-width:0.5;" width="152.082" x="1003" y="956.8906"/><rect fill="#F8FAFC" height="10" style="stroke:#334155;stroke-width:0.5;" width="15" x="1135.082" y="961.8906"/><rect fill="#F8FAFC" height="2" style="stroke:#334155;stroke-width:0.5;" width="4" x="1133.082" y="963.8906"/><rect fill="#F8FAFC" height="2" style="stroke:#334155;stroke-width:0.5;" width="4" x="1133.082" y="967.8906"/><text fill="#000000" font-family="'DejaVu Sans'" font-size="14" lengthAdjust="spacing" textLength="106.1895" x="1018" y="989.8857">Auth validation</text><text fill="#000000" font-family="'DejaVu Sans'" font-size="14" lengthAdjust="spacing" textLength="112.082" x="1018" y="1006.1826">`server/auth.ts`</text></g><!--entity Rbac--><g class="entity" data-qualified-name="Server.Rbac" data-source-line="30" id="ent0011"><rect fill="#F8FAFC" height="62.5938" rx="5" ry="5" style="stroke:#334155;stroke-width:0.5;" width="168.1396" x="23" y="956.8906"/><rect fill="#F8FAFC" height="10" style="stroke:#334155;stroke-width:0.5;" width="15" x="171.1396" y="961.8906"/><rect fill="#F8FAFC" height="2" style="stroke:#334155;stroke-width:0.5;" width="4" x="169.1396" y="963.8906"/><rect fill="#F8FAFC" height="2" style="stroke:#334155;stroke-width:0.5;" width="4" x="169.1396" y="967.8906"/><text fill="#000000" font-family="'DejaVu Sans'" font-size="14" lengthAdjust="spacing" textLength="128.1396" x="38" y="989.8857">RBAC and filtering</text><text fill="#000000" font-family="'DejaVu Sans'" font-size="14" lengthAdjust="spacing" textLength="111.1865" x="38" y="1006.1826">`server/rbac.ts`</text></g><!--entity AiHelpers--><g class="entity" data-qualified-name="Server.AiHelpers" data-source-line="31" id="ent0012"><rect fill="#F8FAFC" height="62.5938" rx="5" ry="5" style="stroke:#334155;stroke-width:0.5;" width="234.7969" x="226.5" y="956.8906"/><rect fill="#F8FAFC" height="10" style="stroke:#334155;stroke-width:0.5;" width="15" x="441.2969" y="961.8906"/><rect fill="#F8FAFC" height="2" style="stroke:#334155;stroke-width:0.5;" width="4" x="439.2969" y="963.8906"/><rect fill="#F8FAFC" height="2" style="stroke:#334155;stroke-width:0.5;" width="4" x="439.2969" y="967.8906"/><text fill="#000000" font-family="'DejaVu Sans'" font-size="14" lengthAdjust="spacing" textLength="108.4521" x="241.5" y="989.8857">AI helper policy</text><text fill="#000000" font-family="'DejaVu Sans'" font-size="14" lengthAdjust="spacing" textLength="194.7969" x="241.5" y="1006.1826">cache, limit, heuristic result</text></g><!--entity Metrics--><g class="entity" data-qualified-name="Server.Metrics" data-source-line="32" id="ent0013"><rect fill="#F8FAFC" height="62.5938" rx="5" ry="5" style="stroke:#334155;stroke-width:0.5;" width="257.7314" x="497" y="956.8906"/><rect fill="#F8FAFC" height="10" style="stroke:#334155;stroke-width:0.5;" width="15" x="734.7314" y="961.8906"/><rect fill="#F8FAFC" height="2" style="stroke:#334155;stroke-width:0.5;" width="4" x="732.7314" y="963.8906"/><rect fill="#F8FAFC" height="2" style="stroke:#334155;stroke-width:0.5;" width="4" x="732.7314" y="967.8906"/><text fill="#000000" font-family="'DejaVu Sans'" font-size="14" lengthAdjust="spacing" textLength="90.9863" x="512" y="989.8857">Metrics store</text><text fill="#000000" font-family="'DejaVu Sans'" font-size="14" lengthAdjust="spacing" textLength="217.7314" x="512" y="1006.1826">route groups, latency, memory</text></g><!--entity StaticAssets--><g class="entity" data-qualified-name="Server.StaticAssets" data-source-line="33" id="ent0014"><rect fill="#F8FAFC" height="62.5938" rx="5" ry="5" style="stroke:#334155;stroke-width:0.5;" width="177.7988" x="790" y="956.8906"/><rect fill="#F8FAFC" height="10" style="stroke:#334155;stroke-width:0.5;" width="15" x="947.7988" y="961.8906"/><rect fill="#F8FAFC" height="2" style="stroke:#334155;stroke-width:0.5;" width="4" x="945.7988" y="963.8906"/><rect fill="#F8FAFC" height="2" style="stroke:#334155;stroke-width:0.5;" width="4" x="945.7988" y="967.8906"/><text fill="#000000" font-family="'DejaVu Sans'" font-size="14" lengthAdjust="spacing" textLength="137.7988" x="805" y="989.8857">Static asset serving</text><text fill="#000000" font-family="'DejaVu Sans'" font-size="14" lengthAdjust="spacing" textLength="85.9141" x="805" y="1006.1826">SPA fallback</text></g><!--entity Database--><g class="entity" data-qualified-name="Persistence.Database" data-source-line="37" id="ent0016"><rect fill="#F8FAFC" height="62.5938" rx="5" ry="5" style="stroke:#334155;stroke-width:0.5;" width="185.1748" x="1347.5" y="956.8906"/><rect fill="#F8FAFC" height="10" style="stroke:#334155;stroke-width:0.5;" width="15" x="1512.6748" y="961.8906"/><rect fill="#F8FAFC" height="2" style="stroke:#334155;stroke-width:0.5;" width="4" x="1510.6748" y="963.8906"/><rect fill="#F8FAFC" height="2" style="stroke:#334155;stroke-width:0.5;" width="4" x="1510.6748" y="967.8906"/><text fill="#000000" font-family="'DejaVu Sans'" font-size="14" lengthAdjust="spacing" textLength="135.7617" x="1362.5" y="989.8857">FamTrackDatabase</text><text fill="#000000" font-family="'DejaVu Sans'" font-size="14" lengthAdjust="spacing" textLength="145.1748" x="1362.5" y="1006.1826">`server/database.ts`</text></g><!--entity Migrations--><g class="entity" data-qualified-name="Persistence.Migrations" data-source-line="38" id="ent0017"><rect fill="#F8FAFC" height="78.8906" rx="5" ry="5" style="stroke:#334155;stroke-width:0.5;" width="266.126" x="1211" y="1098.8906"/><rect fill="#F8FAFC" height="10" style="stroke:#334155;stroke-width:0.5;" width="15" x="1457.126" y="1103.8906"/><rect fill="#F8FAFC" height="2" style="stroke:#334155;stroke-width:0.5;" width="4" x="1455.126" y="1105.8906"/><rect fill="#F8FAFC" height="2" style="stroke:#334155;stroke-width:0.5;" width="4" x="1455.126" y="1109.8906"/><text fill="#000000" font-family="'DejaVu Sans'" font-size="14" lengthAdjust="spacing" textLength="118.207" x="1226" y="1131.8857">Migration engine</text><text fill="#000000" font-family="'DejaVu Sans'" font-size="14" lengthAdjust="spacing" textLength="226.126" x="1226" y="1148.1826">create schema, legacy upgrade,</text><text fill="#000000" font-family="'DejaVu Sans'" font-size="14" lengthAdjust="spacing" textLength="68.9268" x="1226" y="1164.4795">validation</text></g><!--entity RowMappers--><g class="entity" data-qualified-name="Persistence.RowMappers" data-source-line="39" id="ent0018"><rect fill="#F8FAFC" height="62.5938" rx="5" ry="5" style="stroke:#334155;stroke-width:0.5;" width="203.4131" x="1512.5" y="1106.8906"/><rect fill="#F8FAFC" height="10" style="stroke:#334155;stroke-width:0.5;" width="15" x="1695.9131" y="1111.8906"/><rect fill="#F8FAFC" height="2" style="stroke:#334155;stroke-width:0.5;" width="4" x="1693.9131" y="1113.8906"/><rect fill="#F8FAFC" height="2" style="stroke:#334155;stroke-width:0.5;" width="4" x="1693.9131" y="1117.8906"/><text fill="#000000" font-family="'DejaVu Sans'" font-size="14" lengthAdjust="spacing" textLength="95.8467" x="1527.5" y="1139.8857">Row mappers</text><text fill="#000000" font-family="'DejaVu Sans'" font-size="14" lengthAdjust="spacing" textLength="163.4131" x="1527.5" y="1156.1826">SQL rows &lt;-&gt; AppData</text></g><!--entity SqliteFile--><g class="entity" data-qualified-name="Persistence.SqliteFile" data-source-line="40" id="ent0019"><path d="M1751,1117.3906 C1751,1107.3906 1818.1689,1107.3906 1818.1689,1107.3906 C1818.1689,1107.3906 1885.3379,1107.3906 1885.3379,1117.3906 L1885.3379,1158.9844 C1885.3379,1168.9844 1818.1689,1168.9844 1818.1689,1168.9844 C1818.1689,1168.9844 1751,1168.9844 1751,1158.9844 L1751,1117.3906" fill="#F1F1F1" style="stroke:#181818;stroke-width:0.5;"/><path d="M1751,1117.3906 C1751,1127.3906 1818.1689,1127.3906 1818.1689,1127.3906 C1818.1689,1127.3906 1885.3379,1127.3906 1885.3379,1117.3906" fill="none" style="stroke:#181818;stroke-width:0.5;"/><text fill="#000000" font-family="'DejaVu Sans'" font-size="14" lengthAdjust="spacing" textLength="71.4697" x="1761" y="1144.3857">SQLite file</text><text fill="#000000" font-family="'DejaVu Sans'" font-size="14" lengthAdjust="spacing" textLength="114.3379" x="1761" y="1160.6826">families.revision</text></g><!--entity FamilyBot--><g class="entity" data-qualified-name="Integrations.FamilyBot" data-source-line="44" id="ent0021"><rect fill="#F8FAFC" height="78.8906" rx="5" ry="5" style="stroke:#334155;stroke-width:0.5;" width="230.9961" x="1651.5" y="616.8906"/><rect fill="#F8FAFC" height="10" style="stroke:#334155;stroke-width:0.5;" width="15" x="1862.4961" y="621.8906"/><rect fill="#F8FAFC" height="2" style="stroke:#334155;stroke-width:0.5;" width="4" x="1860.4961" y="623.8906"/><rect fill="#F8FAFC" height="2" style="stroke:#334155;stroke-width:0.5;" width="4" x="1860.4961" y="627.8906"/><text fill="#000000" font-family="'DejaVu Sans'" font-size="14" lengthAdjust="spacing" textLength="177.3516" x="1666.5" y="649.8857">&#1057;&#1077;&#1084;&#1077;&#1081;&#1085;&#1099;&#1081; Telegram-&#1073;&#1086;&#1090;</text><text fill="#000000" font-family="'DejaVu Sans'" font-size="14" lengthAdjust="spacing" textLength="190.9961" x="1666.5" y="666.1826">`agent/famtrack_agent.py`</text><text fill="#000000" font-family="'DejaVu Sans'" font-size="14" lengthAdjust="spacing" textLength="156.8779" x="1666.5" y="682.4795">&#1073;&#1077;&#1079; Codex subprocess</text></g><!--entity Mcp--><g class="entity" data-qualified-name="Integrations.Mcp" data-source-line="45" id="ent0022"><rect fill="#F8FAFC" height="62.5938" rx="5" ry="5" style="stroke:#334155;stroke-width:0.5;" width="210.5566" x="1211.5" y="624.8906"/><rect fill="#F8FAFC" height="10" style="stroke:#334155;stroke-width:0.5;" width="15" x="1402.0566" y="629.8906"/><rect fill="#F8FAFC" height="2" style="stroke:#334155;stroke-width:0.5;" width="4" x="1400.0566" y="631.8906"/><rect fill="#F8FAFC" height="2" style="stroke:#334155;stroke-width:0.5;" width="4" x="1400.0566" y="635.8906"/><text fill="#000000" font-family="'DejaVu Sans'" font-size="14" lengthAdjust="spacing" textLength="80.3838" x="1226.5" y="657.8857">MCP Bridge</text><text fill="#000000" font-family="'DejaVu Sans'" font-size="14" lengthAdjust="spacing" textLength="170.5566" x="1226.5" y="674.1826">`mcp/famtrack_mcp.py`</text></g><!--entity TelegramApi--><g class="entity" data-qualified-name="Integrations.TelegramApi" data-source-line="46" id="ent0023"><rect fill="#F8FAFC" height="46.2969" rx="5" ry="5" style="stroke:#334155;stroke-width:0.5;" width="161.2354" x="1686.5" y="804.3906"/><rect fill="#F8FAFC" height="10" style="stroke:#334155;stroke-width:0.5;" width="15" x="1827.7354" y="809.3906"/><rect fill="#F8FAFC" height="2" style="stroke:#334155;stroke-width:0.5;" width="4" x="1825.7354" y="811.3906"/><rect fill="#F8FAFC" height="2" style="stroke:#334155;stroke-width:0.5;" width="4" x="1825.7354" y="815.3906"/><text fill="#000000" font-family="'DejaVu Sans'" font-size="14" lengthAdjust="spacing" textLength="121.2354" x="1701.5" y="837.3857">Telegram Bot API</text></g><!--entity Collector--><g class="entity" data-qualified-name="Integrations.Collector" data-source-line="47" id="ent0024"><rect fill="#F8FAFC" height="46.2969" rx="5" ry="5" style="stroke:#334155;stroke-width:0.5;" width="158.8154" x="1457.5" y="633.3906"/><rect fill="#F8FAFC" height="10" style="stroke:#334155;stroke-width:0.5;" width="15" x="1596.3154" y="638.3906"/><rect fill="#F8FAFC" height="2" style="stroke:#334155;stroke-width:0.5;" width="4" x="1594.3154" y="640.3906"/><rect fill="#F8FAFC" height="2" style="stroke:#334155;stroke-width:0.5;" width="4" x="1594.3154" y="644.3906"/><text fill="#000000" font-family="'DejaVu Sans'" font-size="14" lengthAdjust="spacing" textLength="118.8154" x="1472.5" y="666.3857">Internal collector</text></g><!--link Screens to Store--><g class="link" data-entity-1="ent0002" data-entity-2="ent0003" data-link-type="dependency" data-source-line="50" id="lnk25"><path d="M750.5,207.1606 C749.42,222.6106 750.55,239.5206 757,253.8906 C761.98,264.9906 766.2205,271.489 774.9405,280.239" fill="none" id="Screens-to-Store" style="stroke:#475569;stroke-width:1;"/><polygon fill="#475569" points="778.47,283.7806,774.9503,274.5822,774.9405,280.239,769.2837,280.2293,778.47,283.7806" style="stroke:#475569;stroke-width:1;stroke-linejoin:miter;stroke-miterlimit:10;"/><text fill="#000000" font-family="'DejaVu Sans'" font-size="13" lengthAdjust="spacing" textLength="194.124" x="758" y="249.9575">&#1087;&#1086;&#1083;&#1100;&#1079;&#1086;&#1074;&#1072;&#1090;&#1077;&#1083;&#1100;&#1089;&#1082;&#1080;&#1077; &#1076;&#1077;&#1081;&#1089;&#1090;&#1074;&#1080;&#1103;</text></g><!--link Store to Queries--><g class="link" data-entity-1="ent0003" data-entity-2="ent0004" data-link-type="dependency" data-source-line="51" id="lnk26"><path d="M888.17,363.2006 C899.29,372.3206 910.49,382.4506 920,392.8906 C932.79,406.9206 942.035,419.9113 951.535,435.2313" fill="none" id="Store-to-Queries" style="stroke:#475569;stroke-width:1;"/><polygon fill="#475569" points="954.17,439.4806,952.8264,429.7238,951.535,435.2313,946.0275,433.9399,954.17,439.4806" style="stroke:#475569;stroke-width:1;stroke-linejoin:miter;stroke-miterlimit:10;"/><text fill="#000000" font-family="'DejaVu Sans'" font-size="13" lengthAdjust="spacing" textLength="115.4893" x="933" y="405.9575">mutate/invalidate</text></g><!--link Queries to ApiAdapter--><g class="link" data-entity-1="ent0004" data-entity-2="ent0005" data-link-type="dependency" data-source-line="52" id="lnk27"><path d="M977.33,519.2306 C978.33,548.2306 979.5092,582.6935 980.4992,611.6635" fill="none" id="Queries-to-ApiAdapter" style="stroke:#475569;stroke-width:1;"/><polygon fill="#475569" points="980.67,616.6606,984.3603,607.5293,980.4992,611.6635,976.365,607.8025,980.67,616.6606" style="stroke:#475569;stroke-width:1;stroke-linejoin:miter;stroke-miterlimit:10;"/><text fill="#000000" font-family="'DejaVu Sans'" font-size="13" lengthAdjust="spacing" textLength="95.8877" x="979" y="561.9575">loadData/write</text></g><!--link ApiAdapter to Router--><g class="link" data-entity-1="ent0005" data-entity-2="ent0009" data-link-type="dependency" data-source-line="53" id="lnk28"><path d="M982.92,696.1606 C983.63,726.3706 984.4919,762.742 985.1519,790.682" fill="none" id="ApiAdapter-to-Router" style="stroke:#475569;stroke-width:1;"/><polygon fill="#475569" points="985.27,795.6806,989.0563,786.5887,985.1519,790.682,981.0586,786.7776,985.27,795.6806" style="stroke:#475569;stroke-width:1;stroke-linejoin:miter;stroke-miterlimit:10;"/><text fill="#000000" font-family="'DejaVu Sans'" font-size="13" lengthAdjust="spacing" textLength="69.6719" x="985" y="740.9575">HTTP JSON</text></g><!--link Screens to Models--><g class="link" data-entity-1="ent0002" data-entity-2="ent0006" data-link-type="dependency" data-source-line="55" id="lnk29"><path d="M706.64,207.0206 C686.38,228.1906 665.63,254.9706 655,283.8906 C634.25,340.3406 661.7168,404.6682 683.4468,443.4682" fill="none" id="Screens-to-Models" style="stroke:#475569;stroke-width:1;"/><polygon fill="#475569" points="685.89,447.8306,684.9822,438.0237,683.4468,443.4682,678.0023,441.9328,685.89,447.8306" style="stroke:#475569;stroke-width:1;stroke-linejoin:miter;stroke-miterlimit:10;"/><text fill="#000000" font-family="'DejaVu Sans'" font-size="13" lengthAdjust="spacing" textLength="78" x="656" y="327.9575">typed props</text></g><!--link Store to Models--><g class="link" data-entity-1="ent0003" data-entity-2="ent0006" data-link-type="dependency" data-source-line="56" id="lnk30"><path d="M771.33,363.2406 C760.27,372.0306 749.56,382.0206 741,392.8906 C728.24,409.0806 720.8293,425.72 715.0193,443.05" fill="none" id="Store-to-Models" style="stroke:#475569;stroke-width:1;"/><polygon fill="#475569" points="713.43,447.7906,720.0834,440.5289,715.0193,443.05,712.4983,437.9859,713.43,447.7906" style="stroke:#475569;stroke-width:1;stroke-linejoin:miter;stroke-miterlimit:10;"/><text fill="#000000" font-family="'DejaVu Sans'" font-size="13" lengthAdjust="spacing" textLength="173.2529" x="742" y="405.9575">&#1076;&#1086;&#1084;&#1077;&#1085;&#1085;&#1072;&#1103; &#1083;&#1086;&#1075;&#1080;&#1082;&#1072; UI layer</text></g><!--link Screens to TwaUtils--><g class="link" data-entity-1="ent0002" data-entity-2="ent0007" data-link-type="dependency" data-source-line="57" id="lnk31"><path d="M898.67,206.9606 C918.81,215.7906 938.85,225.7906 957,236.8906 C981.75,252.0306 1002.5667,270.3229 1020.5567,288.1329" fill="none" id="Screens-to-TwaUtils" style="stroke:#475569;stroke-width:1;"/><polygon fill="#475569" points="1024.11,291.6506,1020.5283,282.4761,1020.5567,288.1329,1014.9,288.1614,1024.11,291.6506" style="stroke:#475569;stroke-width:1;stroke-linejoin:miter;stroke-miterlimit:10;"/><text fill="#000000" font-family="'DejaVu Sans'" font-size="13" lengthAdjust="spacing" textLength="157.2124" x="981" y="249.9575">haptics, theme, initData</text></g><!--link Router to Auth--><g class="link" data-entity-1="ent0009" data-entity-2="ent0010" data-link-type="dependency" data-source-line="59" id="lnk32"><path d="M1003.93,859.0506 C1020.4,887.2006 1042.146,924.3845 1058.596,952.5145" fill="none" id="Router-to-Auth" style="stroke:#475569;stroke-width:1;"/><polygon fill="#475569" points="1061.12,956.8306,1060.0297,947.0423,1058.596,952.5145,1053.1238,951.0808,1061.12,956.8306" style="stroke:#475569;stroke-width:1;stroke-linejoin:miter;stroke-miterlimit:10;"/><text fill="#000000" font-family="'DejaVu Sans'" font-size="13" lengthAdjust="spacing" textLength="146.1992" x="1030" y="901.9575">validateRequestAuth()</text></g><!--link Router to Rbac--><g class="link" data-entity-1="ent0009" data-entity-2="ent0011" data-link-type="dependency" data-source-line="60" id="lnk33"><path d="M906.42,828.9406 C775.01,831.2306 504.96,841.8706 282,888.8906 C248.44,895.9706 239.46,898.1406 209,913.8906 C186.12,925.7206 166.6178,939.2052 147.9778,953.5952" fill="none" id="Router-to-Rbac" style="stroke:#475569;stroke-width:1;"/><polygon fill="#475569" points="144.02,956.6506,153.5884,954.3171,147.9778,953.5952,148.6997,947.9846,144.02,956.6506" style="stroke:#475569;stroke-width:1;stroke-linejoin:miter;stroke-miterlimit:10;"/><text fill="#000000" font-family="'DejaVu Sans'" font-size="13" lengthAdjust="spacing" textLength="214.1445" x="283" y="901.9575">assertCanWrite(), filterForActor()</text></g><!--link Router to AiHelpers--><g class="link" data-entity-1="ent0009" data-entity-2="ent0012" data-link-type="dependency" data-source-line="61" id="lnk34"><path d="M906.44,833.7506 C805.06,842.3806 625.53,863.8106 480,913.8906 C449.04,924.5406 420.998,939.1859 395.628,954.2659" fill="none" id="Router-to-AiHelpers" style="stroke:#475569;stroke-width:1;"/><polygon fill="#475569" points="391.33,956.8206,401.1103,955.6605,395.628,954.2659,397.0227,948.7836,391.33,956.8206" style="stroke:#475569;stroke-width:1;stroke-linejoin:miter;stroke-miterlimit:10;"/><text fill="#000000" font-family="'DejaVu Sans'" font-size="13" lengthAdjust="spacing" textLength="51.0479" x="561" y="901.9575">/api/ai/*</text></g><!--link Router to Metrics--><g class="link" data-entity-1="ent0009" data-entity-2="ent0013" data-link-type="dependency" data-source-line="62" id="lnk35"><path d="M906.35,847.6206 C869.27,857.8206 825.05,871.8006 787,888.8906 C745,907.7506 704.7542,932.7832 673.2442,954.0532" fill="none" id="Router-to-Metrics" style="stroke:#475569;stroke-width:1;"/><polygon fill="#475569" points="669.1,956.8506,678.7975,955.1306,673.2442,954.0532,674.3216,948.4999,669.1,956.8506" style="stroke:#475569;stroke-width:1;stroke-linejoin:miter;stroke-miterlimit:10;"/><text fill="#000000" font-family="'DejaVu Sans'" font-size="13" lengthAdjust="spacing" textLength="101.5498" x="788" y="901.9575">record on finish</text></g><!--link Router to StaticAssets--><g class="link" data-entity-1="ent0009" data-entity-2="ent0014" data-link-type="dependency" data-source-line="63" id="lnk36"><path d="M936.64,859.1206 C925.98,867.6606 915.63,877.7106 908,888.8906 C894.14,909.2106 887.7016,931.3344 883.8816,951.9344" fill="none" id="Router-to-StaticAssets" style="stroke:#475569;stroke-width:1;"/><polygon fill="#475569" points="882.97,956.8506,888.5439,948.7308,883.8816,951.9344,880.678,947.2722,882.97,956.8506" style="stroke:#475569;stroke-width:1;stroke-linejoin:miter;stroke-miterlimit:10;"/><text fill="#000000" font-family="'DejaVu Sans'" font-size="13" lengthAdjust="spacing" textLength="103.5239" x="909" y="901.9575">non-API request</text></g><!--link Router to Database--><g class="link" data-entity-1="ent0009" data-entity-2="ent0016" data-link-type="dependency" data-source-line="64" id="lnk37"><path d="M1065.84,851.2006 C1102.36,862.0106 1146.08,875.4806 1185,888.8906 C1246.25,910.0006 1310.0384,934.7418 1360.5784,954.9818" fill="none" id="Router-to-Database" style="stroke:#475569;stroke-width:1;"/><polygon fill="#475569" points="1365.22,956.8406,1358.3522,949.7814,1360.5784,954.9818,1355.378,957.208,1365.22,956.8406" style="stroke:#475569;stroke-width:1;stroke-linejoin:miter;stroke-miterlimit:10;"/><text fill="#000000" font-family="'DejaVu Sans'" font-size="13" lengthAdjust="spacing" textLength="177.9121" x="1228" y="901.9575">exportEnvelope(), mutate()</text></g><!--link Database to Migrations--><g class="link" data-entity-1="ent0016" data-entity-2="ent0017" data-link-type="dependency" data-source-line="66" id="lnk38"><path d="M1409.95,1020.1406 C1401.3,1029.8506 1392.26,1040.9206 1385,1051.8906 C1375.37,1066.4406 1368.7583,1079.0485 1361.8883,1094.1685" fill="none" id="Database-to-Migrations" style="stroke:#475569;stroke-width:1;"/><polygon fill="#475569" points="1359.82,1098.7206,1367.1847,1092.1814,1361.8883,1094.1685,1359.9013,1088.8721,1359.82,1098.7206" style="stroke:#475569;stroke-width:1;stroke-linejoin:miter;stroke-miterlimit:10;"/><text fill="#000000" font-family="'DejaVu Sans'" font-size="13" lengthAdjust="spacing" textLength="133.377" x="1386" y="1064.9575">open-time migration</text></g><!--link Database to RowMappers--><g class="link" data-entity-1="ent0016" data-entity-2="ent0018" data-link-type="dependency" data-source-line="67" id="lnk39"><path d="M1483.07,1019.9006 C1496.45,1029.7806 1511.07,1041.0006 1524,1051.8906 C1544.61,1069.2406 1562.9812,1086.5287 1580.0412,1103.2687" fill="none" id="Database-to-RowMappers" style="stroke:#475569;stroke-width:1;"/><polygon fill="#475569" points="1583.61,1106.7706,1579.9876,1097.6121,1580.0412,1103.2687,1574.3846,1103.3223,1583.61,1106.7706" style="stroke:#475569;stroke-width:1;stroke-linejoin:miter;stroke-miterlimit:10;"/><text fill="#000000" font-family="'DejaVu Sans'" font-size="13" lengthAdjust="spacing" textLength="122.6113" x="1542" y="1064.9575">rowTo* and insert*</text></g><!--link Database to SqliteFile--><g class="link" data-entity-1="ent0016" data-entity-2="ent0019" data-link-type="dependency" data-source-line="68" id="lnk40"><path d="M1532.64,1008.1506 C1576.16,1018.4906 1628.2,1033.0906 1673,1051.8906 C1708.7,1066.8806 1742.0934,1086.5324 1770.0534,1104.6424" fill="none" id="Database-to-SqliteFile" style="stroke:#475569;stroke-width:1;"/><polygon fill="#475569" points="1774.25,1107.3606,1768.8707,1099.1106,1770.0534,1104.6424,1764.5216,1105.8252,1774.25,1107.3606" style="stroke:#475569;stroke-width:1;stroke-linejoin:miter;stroke-miterlimit:10;"/><text fill="#000000" font-family="'DejaVu Sans'" font-size="13" lengthAdjust="spacing" textLength="130.5142" x="1707" y="1064.9575">export/persist bytes</text></g><!--link FamilyBot to TelegramApi--><g class="link" data-entity-1="ent0021" data-entity-2="ent0023" data-link-type="dependency" data-source-line="70" id="lnk41"><path d="M1767,701.1606 C1767,734.6806 1767,771.9506 1767,799.3606" fill="none" id="FamilyBot-TelegramApi" style="stroke:#475569;stroke-width:1;"/><polygon fill="#475569" points="1767,696.1606,1763,705.1606,1767,701.1606,1771,705.1606,1767,696.1606" style="stroke:#475569;stroke-width:1;stroke-linejoin:miter;stroke-miterlimit:10;"/><polygon fill="#475569" points="1767,804.3606,1771,795.3606,1767,799.3606,1763,795.3606,1767,804.3606" style="stroke:#475569;stroke-width:1;stroke-linejoin:miter;stroke-miterlimit:10;"/><text fill="#000000" font-family="'DejaVu Sans'" font-size="13" lengthAdjust="spacing" textLength="75.7212" x="1768" y="740.9575">long polling</text></g><!--link FamilyBot to Router--><g class="link" data-entity-1="ent0021" data-entity-2="ent0009" data-link-type="dependency" data-source-line="71" id="lnk42"><path d="M1695.81,695.9606 C1676.26,705.1206 1654.72,713.9506 1634,719.8906 C1605.17,728.1506 1596.64,723.3006 1567,727.8906 C1527.2,734.0606 1518.03,740.5306 1478,744.8906 C1415.46,751.7006 1256.86,741.4306 1195,752.8906 C1147.16,761.7506 1100.2121,777.9531 1060.2521,793.9431" fill="none" id="FamilyBot-to-Router" style="stroke:#475569;stroke-width:1;"/><polygon fill="#475569" points="1055.61,795.8006,1065.4519,796.1707,1060.2521,793.9431,1062.4798,788.7433,1055.61,795.8006" style="stroke:#475569;stroke-width:1;stroke-linejoin:miter;stroke-miterlimit:10;"/><text fill="#000000" font-family="'DejaVu Sans'" font-size="13" lengthAdjust="spacing" textLength="190.252" x="1568" y="740.9575">API reads/writes + reminders</text></g><!--link Mcp to Router--><g class="link" data-entity-1="ent0022" data-entity-2="ent0009" data-link-type="dependency" data-source-line="72" id="lnk43"><path d="M1257.06,687.9906 C1197.16,718.5806 1110.0632,763.0471 1050.2232,793.5971" fill="none" id="Mcp-to-Router" style="stroke:#475569;stroke-width:1;"/><polygon fill="#475569" points="1045.77,795.8706,1055.6046,795.3409,1050.2232,793.5971,1051.967,788.2158,1045.77,795.8706" style="stroke:#475569;stroke-width:1;stroke-linejoin:miter;stroke-miterlimit:10;"/><text fill="#000000" font-family="'DejaVu Sans'" font-size="13" lengthAdjust="spacing" textLength="108.9194" x="1172" y="740.9575">tool reads/writes</text></g><!--link Collector to Router--><g class="link" data-entity-1="ent0024" data-entity-2="ent0009" data-link-type="dependency" data-source-line="73" id="lnk44"><path d="M1509.95,679.6706 C1491.43,693.6606 1465.66,710.7206 1440,719.8906 C1410.51,730.4206 1400.91,722.8906 1370,727.8906 C1333.69,733.7606 1325.39,739.5406 1289,744.8906 C1247.52,750.9906 1235.99,744.0906 1195,752.8906 C1148.56,762.8606 1102.94,778.5084 1063.34,793.9084" fill="none" id="Collector-to-Router" style="stroke:#475569;stroke-width:1;"/><polygon fill="#475569" points="1058.68,795.7206,1068.5178,796.1866,1063.34,793.9084,1065.6183,788.7306,1058.68,795.7206" style="stroke:#475569;stroke-width:1;stroke-linejoin:miter;stroke-miterlimit:10;"/><text fill="#000000" font-family="'DejaVu Sans'" font-size="13" lengthAdjust="spacing" textLength="102.8765" x="1371" y="740.9575">internal metrics</text></g><g class="legend" data-source-line="75"><rect fill="#DDDDDD" height="75.1875" rx="5" ry="5" style="stroke:#000000;stroke-width:1;" width="348.8369" x="779.5815" y="1213.8906"/><text fill="#000000" font-family="'DejaVu Sans'" font-size="14" lengthAdjust="spacing" textLength="323.6953" x="784.5815" y="1231.8857">1. Browser &#1092;&#1086;&#1088;&#1084;&#1080;&#1088;&#1091;&#1077;&#1090; UX &#1080; optimistic cache.</text><text fill="#000000" font-family="'DejaVu Sans'" font-size="14" lengthAdjust="spacing" textLength="287.6836" x="784.5815" y="1248.1826">2. Backend &#1103;&#1074;&#1083;&#1103;&#1077;&#1090;&#1089;&#1103; enforcement layer.</text><text fill="#000000" font-family="'DejaVu Sans'" font-size="14" lengthAdjust="spacing" textLength="338.8369" x="784.5815" y="1264.4795">3. Persistence &#1093;&#1088;&#1072;&#1085;&#1080;&#1090; family-scoped aggregate.</text><text fill="#000000" font-family="'DejaVu Sans'" font-size="14" lengthAdjust="spacing" textLength="333.2998" x="784.5815" y="1280.7764">4. &#1057;&#1077;&#1084;&#1077;&#1081;&#1085;&#1099;&#1081; &#1073;&#1086;&#1090; &#1080; MCP &#1085;&#1077; &#1086;&#1073;&#1093;&#1086;&#1076;&#1103;&#1090; API/RBAC.</text></g><g class="footer" data-source-line="6"><text fill="#888888" font-family="'DejaVu Sans'" font-size="10" lengthAdjust="spacing" textLength="387.7637" x="760.1182" y="1311.3604">&#1055;&#1086;&#1089;&#1090;&#1088;&#1086;&#1077;&#1085;&#1086; &#1087;&#1086; &#1090;&#1077;&#1082;&#1091;&#1097;&#1077;&#1084;&#1091; worktree, &#1074;&#1082;&#1083;&#1102;&#1095;&#1072;&#1103; &#1085;&#1077;&#1079;&#1072;&#1082;&#1086;&#1084;&#1084;&#1080;&#1095;&#1077;&#1085;&#1085;&#1099;&#1077; &#1080;&#1079;&#1084;&#1077;&#1085;&#1077;&#1085;&#1080;&#1103;</text></g><?plantuml-src PLRRRXH747sVhoYP5t2yQsCm5okAj5vxXICWO9iGAKIXFTFUxNXcUkZkPRsA8e49Yg94yKiUyXRb0o8PWeK1u_p2p1_bLC_CxgpouCjqdwgkhgfpgfroiGnw8jan8jod5js-lKxv-_myFyl_nU-F-Kd-iJZ4Vw-3_FVy6FyUhzBoqlArrjADrkMb8F-ZUCxxnK_0dkRlLmbV9_dxuaNnCxxVqKYRVMUa9FPNFCy_v2VKMT-YfQLhWKmZSZw2FQsTD9J_oPZYi7Y64t5oVkxDcZvFyhFYnSJh0kMl4Uw7uZS4S5mSaO_uRNvStU4iFyK6U_fO_8AJ4T9RB9wK5yFcKH3OVPLcmeY4x414UgJIFks9sCh6Zj73D0grIH4aRZtTYEIU6CQkfrDtLoIIvjRbT-BB8MsBrCurS1dIA_fosurZIKQ6JgJzk7b2nnWzwkfO6xfmzVhAohMRZSrG9vbEPUhe-u1e3RxwFg8AtxlHw_IwlADD94srUkNArSihAy4FGL0TJdDhECFY2dTKggYJPNCaBDMB5pQMUikz3N_4r_dVoFSpv76IkJCaz4tn0WKyVPG-ZeGTx6fXelPGjPqzUBn0Zvsm-tRo3T2UIaKQoWPaJoGg7ZSnTg2p32blW5BqmiJFDnpYTeXQfvO36rg9mBUTDfAj-IzmZn-bwAttQ8Pp5BYCM8HEwTIM3XZ7vbiIotH_ACsO1bhlMpXvWY-54xsRK8G3IP-GpfnAb7Kgf6JenDJL_HBDphQbUIfD9n8PcXUEHAPA9qO-LHOMBJ4IHbBdtYQ5iKBzl8TEfYeRThAk4w5IIdGaOuvclkt_PKUSqt5MHkOjxtWGM-t8MFQvDHxANUI3XavvQ_ztWjyPYGUyCDC4jtPsxlaU0lry0vJNGFtNDsxMzVSWz5XvCUiHYogDvC74-PRVPN1dw0RqLCGgydcQ6WXiJF2CyYLOwtH9WFfxAeO3r7vgO7P5E3q07zxz9Wrad274JCSg75T5Mg0O5N8Bs1oQib96Mf2nF4tTyZO-MtUaCogqPCksyVSYfb1cuKKucORZ1KfaeisuJ7Hfu8lCnG-nQAKZ3jC7l7slmo8H8yJzgiCOrc7KRBhl8GP4XoEaptRZ6ypjzQvlh9SfhrLuNJYnAwoSPYMgLYQPgI7-RWfzm6adcVPL2ZEG1LSYYnmb0lUJVH6EQPW15qbmRbgfygwr0t_TBJsYH6ISETpo_crYTQ1FMv-nNl2vLUr7TqeGREhmQ0vuXPDHM8JXkSwygjbGDjkJ690U43DPsaoThCFmkEO2NLZlzheRrojf-ek707xUUQA_eveBhVmLniSX4x4FhYqY0CS9_TP_jhCnc0a8vWDrGQG3iiFTpEXGsfBPFIzEQzhvj7P14gEYFjSX2REfDtomhp9tOJR3HXWpsqloLOkWEsFuGYOLCSGyZZ40jF6eRlt5wQXqZbf8jvSiMlK340FkL-WQfh0VmIVyxVNkb9Nv3UV2Z-7NVgALbkoZqYfuyHecmU2g-3Aezrg-jBKY0Hfh4N6X5qS6bGeQUmmjMG-OLuZFjx-uEnjsAL7OP-MA2FdDR2EYoJQYFgycySToSd_0mZ_yXiYFwS4cQ3c6kZHTrse6wm420ZyNoA77eGIOPuvZ3e8gFdyhbgNLMfZabeJGMyUh5oyrSQmpm373ZUkAz27V--AbXKgWUjfqk42pHXDzWUKYX7zHgCNv9g3Md5KUzvZB18PY82exQAAQiW5eYfd1qyAKiJQHDUU1aWUPDcuZVIfZdVb8o_8Ymc02yp5Cg0qhGDCMXfgaf5wUHKz9pK7hqOwUzpgjKaxC_2nuokD9G8jPAMsqEyO03u89do0VNBuf7toNuPa5FOyXfmtaJ8kLcH2HBLlHOYmRcV0KWkw0UhDeftKy0myct9e5gfg9IQNo0GBZj-YkTaud8ElbzkHLLFm8JNdc7vBFyFevAGxfmLTuHpOV27uSjM6ttAu7AnL7OEC7_8O5k7a4TTxJ9aItuXNdUviDhhHdva7nidfpdUAOygtKig5c8eb-tq38dJ_dQfl-fuAb-75aB5tym2KGwbNnqh_RZh25T2xoy6tpmxkySl0V?></g></svg>