<svg xmlns="http://www.w3.org/2000/svg" xmlns:xlink="http://www.w3.org/1999/xlink" contentStyleType="text/css" data-diagram-type="SEQUENCE" height="858px" preserveAspectRatio="none" style="width:1514px;height:858px;background:#FFFFFF;" version="1.1" viewBox="0 0 1514 858" width="1514px" zoomAndPan="magnify"><?plantuml 1.2026.6?><defs/><g><g class="title" data-source-line="5"><text fill="#000000" font-family="'DejaVu Sans'" font-size="14" font-weight="700" lengthAdjust="spacing" textLength="276.001" x="618.4409" y="27.9951">FamTrack &#8212; durable outbox replay</text></g><g><title>Family member</title><rect fill="#000000" fill-opacity="0.00000" height="635.4609" width="8" x="64.4644" y="123.5938"/><line style="stroke:#94A3B8;stroke-width:0.5;stroke-dasharray:5,5;" x1="67.9644" x2="67.9644" y1="123.5938" y2="759.0547"/></g><g><title/><rect fill="#F8FAFC" height="609.4609" style="stroke:#181818;stroke-width:1;" width="10" x="62.9644" y="131.5938"/></g><g><title>Mini App UI</title><rect fill="#000000" fill-opacity="0.00000" height="635.4609" width="8" x="350.4927" y="123.5938"/><line style="stroke:#94A3B8;stroke-width:0.5;stroke-dasharray:5,5;" x1="353.9927" x2="353.9927" y1="123.5938" y2="759.0547"/></g><g><title/><rect fill="#F8FAFC" height="588.3281" style="stroke:#181818;stroke-width:1;" width="10" x="348.9927" y="152.7266"/></g><g><title>IndexedDB outbox</title><rect fill="#000000" fill-opacity="0.00000" height="635.4609" width="8" x="686.1152" y="123.5938"/><line style="stroke:#94A3B8;stroke-width:0.5;stroke-dasharray:5,5;" x1="689.6152" x2="689.6152" y1="123.5938" y2="759.0547"/></g><g><title/><rect fill="#F8FAFC" height="29.1328" style="stroke:#181818;stroke-width:1;" width="10" x="684.6152" y="181.8594"/></g><g><title/><rect fill="#F8FAFC" height="29.1328" style="stroke:#181818;stroke-width:1;" width="10" x="684.6152" y="668.7891"/></g><g><title>HTTP API</title><rect fill="#000000" fill-opacity="0.00000" height="635.4609" width="8" x="798.3447" y="123.5938"/><line style="stroke:#94A3B8;stroke-width:0.5;stroke-dasharray:5,5;" x1="801.8447" x2="801.8447" y1="123.5938" y2="759.0547"/></g><g><title/><rect fill="#F8FAFC" height="353.2656" style="stroke:#181818;stroke-width:1;" width="10" x="796.8447" y="286.3906"/></g><g><title>SQLite . mutation receipts</title><rect fill="#000000" fill-opacity="0.00000" height="635.4609" width="8" x="1119.2744" y="123.5938"/><line style="stroke:#94A3B8;stroke-width:0.5;stroke-dasharray:5,5;" x1="1122.7744" x2="1122.7744" y1="123.5938" y2="759.0547"/></g><g><title/><rect fill="#F8FAFC" height="29.1328" style="stroke:#181818;stroke-width:1;" width="10" x="1117.7744" y="315.5234"/></g><g><title/><rect fill="#F8FAFC" height="29.1328" style="stroke:#181818;stroke-width:1;" width="10" x="1117.7744" y="404.9219"/></g><g><title/><rect fill="#F8FAFC" height="87.3984" style="stroke:#181818;stroke-width:1;" width="10" x="1117.7744" y="509.125"/></g><g><title>Atomic DB file</title><rect fill="#000000" fill-opacity="0.00000" height="635.4609" width="8" x="1441.6514" y="123.5938"/><line style="stroke:#94A3B8;stroke-width:0.5;stroke-dasharray:5,5;" x1="1445.1514" x2="1445.1514" y1="123.5938" y2="759.0547"/></g><g><title/><rect fill="#F8FAFC" height="29.1328" style="stroke:#181818;stroke-width:1;" width="10" x="1440.1514" y="538.2578"/></g><text fill="#0F172A" font-family="'DejaVu Sans'" font-size="14" lengthAdjust="spacing" textLength="109.9287" x="10" y="120.292">Family member</text><ellipse cx="67.9644" cy="55.7969" fill="#FFFFFF" rx="8" ry="8" style="stroke:#64748B;stroke-width:0.5;"/><path d="M67.9644,63.7969 L67.9644,90.7969 M54.9644,71.7969 L80.9644,71.7969 M67.9644,90.7969 L54.9644,105.7969 M67.9644,90.7969 L80.9644,105.7969" fill="none" style="stroke:#64748B;stroke-width:0.5;"/><text fill="#000000" font-family="'DejaVu Sans'" font-size="14" lengthAdjust="spacing" textLength="79.3584" x="311.3135" y="120.292">Mini App UI</text><path d="M333.4927,79.2969 L333.4927,103.2969 M333.4927,91.2969 L350.4927,91.2969" fill="none" style="stroke:#181818;stroke-width:0.5;"/><ellipse cx="362.4927" cy="91.2969" fill="#E2E2F0" rx="12" ry="12" style="stroke:#181818;stroke-width:0.5;"/><text fill="#000000" font-family="'DejaVu Sans'" font-size="14" lengthAdjust="spacing" textLength="129.7871" x="621.7217" y="120.292">IndexedDB outbox</text><path d="M671.6152,71.2969 C671.6152,61.2969 689.6152,61.2969 689.6152,61.2969 C689.6152,61.2969 707.6152,61.2969 707.6152,71.2969 L707.6152,97.2969 C707.6152,107.2969 689.6152,107.2969 689.6152,107.2969 C689.6152,107.2969 671.6152,107.2969 671.6152,97.2969 L671.6152,71.2969" fill="#E2E2F0" style="stroke:#181818;stroke-width:0.5;"/><path d="M671.6152,71.2969 C671.6152,81.2969 689.6152,81.2969 689.6152,81.2969 C689.6152,81.2969 707.6152,81.2969 707.6152,71.2969" fill="none" style="stroke:#181818;stroke-width:0.5;"/><text fill="#000000" font-family="'DejaVu Sans'" font-size="14" lengthAdjust="spacing" textLength="62.6719" x="767.5088" y="120.292">HTTP API</text><path d="M781.3447,79.2969 L781.3447,103.2969 M781.3447,91.2969 L798.3447,91.2969" fill="none" style="stroke:#181818;stroke-width:0.5;"/><ellipse cx="810.3447" cy="91.2969" fill="#E2E2F0" rx="12" ry="12" style="stroke:#181818;stroke-width:0.5;"/><text fill="#000000" font-family="'DejaVu Sans'" font-size="14" lengthAdjust="spacing" textLength="190.415" x="1024.5669" y="120.292">SQLite + mutation receipts</text><path d="M1104.7744,71.2969 C1104.7744,61.2969 1122.7744,61.2969 1122.7744,61.2969 C1122.7744,61.2969 1140.7744,61.2969 1140.7744,71.2969 L1140.7744,97.2969 C1140.7744,107.2969 1122.7744,107.2969 1122.7744,107.2969 C1122.7744,107.2969 1104.7744,107.2969 1104.7744,97.2969 L1104.7744,71.2969" fill="#E2E2F0" style="stroke:#181818;stroke-width:0.5;"/><path d="M1104.7744,71.2969 C1104.7744,81.2969 1122.7744,81.2969 1122.7744,81.2969 C1122.7744,81.2969 1140.7744,81.2969 1140.7744,71.2969" fill="none" style="stroke:#181818;stroke-width:0.5;"/><rect fill="#E2E2F0" height="30.2969" style="stroke:#181818;stroke-width:0.5;" width="113.4629" x="1390.4199" y="88.2969"/><rect fill="#E2E2F0" height="30.2969" style="stroke:#181818;stroke-width:0.5;" width="113.4629" x="1386.4199" y="92.2969"/><text fill="#000000" font-family="'DejaVu Sans'" font-size="14" lengthAdjust="spacing" textLength="99.4629" x="1393.4199" y="112.292">Atomic DB file</text><text fill="#0F172A" font-family="'DejaVu Sans'" font-size="14" lengthAdjust="spacing" textLength="109.9287" x="10" y="832.0498">Family member</text><ellipse cx="67.9644" cy="767.5547" fill="#FFFFFF" rx="8" ry="8" style="stroke:#64748B;stroke-width:0.5;"/><path d="M67.9644,775.5547 L67.9644,802.5547 M54.9644,783.5547 L80.9644,783.5547 M67.9644,802.5547 L54.9644,817.5547 M67.9644,802.5547 L80.9644,817.5547" fill="none" style="stroke:#64748B;stroke-width:0.5;"/><text fill="#000000" font-family="'DejaVu Sans'" font-size="14" lengthAdjust="spacing" textLength="79.3584" x="311.3135" y="804.0498">Mini App UI</text><path d="M333.4927,763.0547 L333.4927,787.0547 M333.4927,775.0547 L350.4927,775.0547" fill="none" style="stroke:#181818;stroke-width:0.5;"/><ellipse cx="362.4927" cy="775.0547" fill="#E2E2F0" rx="12" ry="12" style="stroke:#181818;stroke-width:0.5;"/><text fill="#000000" font-family="'DejaVu Sans'" font-size="14" lengthAdjust="spacing" textLength="129.7871" x="621.7217" y="818.0498">IndexedDB outbox</text><path d="M671.6152,769.0547 C671.6152,759.0547 689.6152,759.0547 689.6152,759.0547 C689.6152,759.0547 707.6152,759.0547 707.6152,769.0547 L707.6152,795.0547 C707.6152,805.0547 689.6152,805.0547 689.6152,805.0547 C689.6152,805.0547 671.6152,805.0547 671.6152,795.0547 L671.6152,769.0547" fill="#E2E2F0" style="stroke:#181818;stroke-width:0.5;"/><path d="M671.6152,769.0547 C671.6152,779.0547 689.6152,779.0547 689.6152,779.0547 C689.6152,779.0547 707.6152,779.0547 707.6152,769.0547" fill="none" style="stroke:#181818;stroke-width:0.5;"/><text fill="#000000" font-family="'DejaVu Sans'" font-size="14" lengthAdjust="spacing" textLength="62.6719" x="767.5088" y="804.0498">HTTP API</text><path d="M781.3447,763.0547 L781.3447,787.0547 M781.3447,775.0547 L798.3447,775.0547" fill="none" style="stroke:#181818;stroke-width:0.5;"/><ellipse cx="810.3447" cy="775.0547" fill="#E2E2F0" rx="12" ry="12" style="stroke:#181818;stroke-width:0.5;"/><text fill="#000000" font-family="'DejaVu Sans'" font-size="14" lengthAdjust="spacing" textLength="190.415" x="1024.5669" y="818.0498">SQLite + mutation receipts</text><path d="M1104.7744,769.0547 C1104.7744,759.0547 1122.7744,759.0547 1122.7744,759.0547 C1122.7744,759.0547 1140.7744,759.0547 1140.7744,769.0547 L1140.7744,795.0547 C1140.7744,805.0547 1122.7744,805.0547 1122.7744,805.0547 C1122.7744,805.0547 1104.7744,805.0547 1104.7744,795.0547 L1104.7744,769.0547" fill="#E2E2F0" style="stroke:#181818;stroke-width:0.5;"/><path d="M1104.7744,769.0547 C1104.7744,779.0547 1122.7744,779.0547 1122.7744,779.0547 C1122.7744,779.0547 1140.7744,779.0547 1140.7744,769.0547" fill="none" style="stroke:#181818;stroke-width:0.5;"/><rect fill="#E2E2F0" height="30.2969" style="stroke:#181818;stroke-width:0.5;" width="113.4629" x="1390.4199" y="759.0547"/><rect fill="#E2E2F0" height="30.2969" style="stroke:#181818;stroke-width:0.5;" width="113.4629" x="1386.4199" y="763.0547"/><text fill="#000000" font-family="'DejaVu Sans'" font-size="14" lengthAdjust="spacing" textLength="99.4629" x="1393.4199" y="783.0498">Atomic DB file</text><polygon fill="#475569" points="336.9927,148.7266,346.9927,152.7266,336.9927,156.7266,340.9927,152.7266" style="stroke:#475569;stroke-width:1;stroke-linejoin:miter;stroke-miterlimit:10;"/><line style="stroke:#475569;stroke-width:1;" x1="72.9644" x2="342.9927" y1="152.7266" y2="152.7266"/><text fill="#000000" font-family="'DejaVu Sans'" font-size="13" font-weight="700" lengthAdjust="spacing" textLength="9.0454" x="79.9644" y="147.6606">1</text><text fill="#000000" font-family="'DejaVu Sans'" font-size="13" lengthAdjust="spacing" textLength="149.9634" x="93.0098" y="147.6606">foreground / reconnect</text><polygon fill="#475569" points="672.6152,177.8594,682.6152,181.8594,672.6152,185.8594,676.6152,181.8594" style="stroke:#475569;stroke-width:1;stroke-linejoin:miter;stroke-miterlimit:10;"/><line style="stroke:#475569;stroke-width:1;" x1="358.9927" x2="678.6152" y1="181.8594" y2="181.8594"/><text fill="#000000" font-family="'DejaVu Sans'" font-size="13" font-weight="700" lengthAdjust="spacing" textLength="9.0454" x="365.9927" y="176.7935">2</text><text fill="#000000" font-family="'DejaVu Sans'" font-size="13" lengthAdjust="spacing" textLength="238.1641" x="379.0381" y="176.7935">list commands ordered by createdAt</text><polygon fill="#475569" points="369.9927,206.9922,359.9927,210.9922,369.9927,214.9922,365.9927,210.9922" style="stroke:#475569;stroke-width:1;stroke-linejoin:miter;stroke-miterlimit:10;"/><line style="stroke:#475569;stroke-width:1;stroke-dasharray:2,2;" x1="363.9927" x2="683.6152" y1="210.9922" y2="210.9922"/><text fill="#000000" font-family="'DejaVu Sans'" font-size="13" font-weight="700" lengthAdjust="spacing" textLength="9.0454" x="375.9927" y="205.9263">3</text><text fill="#000000" font-family="'DejaVu Sans'" font-size="13" lengthAdjust="spacing" textLength="288.5771" x="389.0381" y="205.9263">exact pending envelopes and optional Blobs</text><path d="M337.9927,222.9922 L414.6167,222.9922 L414.6167,230.125 L404.6167,240.125 L337.9927,240.125 L337.9927,222.9922" fill="#F8FAFC" style="stroke:#CBD5E1;stroke-width:1.5;"/><rect fill="none" height="482.9297" style="stroke:#CBD5E1;stroke-width:1.5;" width="1153.1587" x="337.9927" y="222.9922"/><text fill="#000000" font-family="'DejaVu Sans'" font-size="13" font-weight="700" lengthAdjust="spacing" textLength="31.624" x="352.9927" y="236.0591">loop</text><text fill="#334155" font-family="'DejaVu Sans'" font-size="11" font-weight="700" lengthAdjust="spacing" textLength="156.2505" x="429.6167" y="235.2026">[each command in order]</text><polygon fill="#475569" points="784.8447,282.3906,794.8447,286.3906,784.8447,290.3906,788.8447,286.3906" style="stroke:#475569;stroke-width:1;stroke-linejoin:miter;stroke-miterlimit:10;"/><line style="stroke:#475569;stroke-width:1;" x1="358.9927" x2="790.8447" y1="286.3906" y2="286.3906"/><text fill="#000000" font-family="'DejaVu Sans'" font-size="13" font-weight="700" lengthAdjust="spacing" textLength="9.0454" x="365.9927" y="273.7583">4</text><text fill="#000000" font-family="'DejaVu Sans'" font-size="13" lengthAdjust="spacing" textLength="73.0298" x="379.0381" y="266.1919">POST route</text><text fill="#000000" font-family="'DejaVu Sans'" font-size="13" lengthAdjust="spacing" textLength="292.4175" x="379.0381" y="281.3247">exact revision + mutationId + payload/bytes</text><polygon fill="#475569" points="1105.7744,311.5234,1115.7744,315.5234,1105.7744,319.5234,1109.7744,315.5234" style="stroke:#475569;stroke-width:1;stroke-linejoin:miter;stroke-miterlimit:10;"/><line style="stroke:#475569;stroke-width:1;" x1="806.8447" x2="1111.7744" y1="315.5234" y2="315.5234"/><text fill="#000000" font-family="'DejaVu Sans'" font-size="13" font-weight="700" lengthAdjust="spacing" textLength="9.0454" x="813.8447" y="310.4575">5</text><text fill="#000000" font-family="'DejaVu Sans'" font-size="13" lengthAdjust="spacing" textLength="189.2427" x="826.8901" y="310.4575">lookup (familyId, mutationId)</text><polygon fill="#475569" points="817.8447,340.6563,807.8447,344.6563,817.8447,348.6563,813.8447,344.6563" style="stroke:#475569;stroke-width:1;stroke-linejoin:miter;stroke-miterlimit:10;"/><line style="stroke:#475569;stroke-width:1;stroke-dasharray:2,2;" x1="811.8447" x2="1116.7744" y1="344.6563" y2="344.6563"/><text fill="#000000" font-family="'DejaVu Sans'" font-size="13" font-weight="700" lengthAdjust="spacing" textLength="9.0454" x="823.8447" y="339.5903">6</text><text fill="#000000" font-family="'DejaVu Sans'" font-size="13" lengthAdjust="spacing" textLength="251.1768" x="836.8901" y="339.5903">none | exact receipt | conflicting reuse</text><path d="M785.8447,356.6563 L850.2876,356.6563 L850.2876,363.7891 L840.2876,373.7891 L785.8447,373.7891 L785.8447,356.6563" fill="#F8FAFC" style="stroke:#CBD5E1;stroke-width:1.5;"/><rect fill="none" height="247.8672" style="stroke:#CBD5E1;stroke-width:1.5;" width="680.3066" x="785.8447" y="356.6563"/><text fill="#000000" font-family="'DejaVu Sans'" font-size="13" font-weight="700" lengthAdjust="spacing" textLength="19.4429" x="800.8447" y="369.7231">alt</text><text fill="#334155" font-family="'DejaVu Sans'" font-size="11" font-weight="700" lengthAdjust="spacing" textLength="105.4238" x="865.2876" y="368.8667">[exact duplicate]</text><line style="stroke:#CBD5E1;stroke-width:1;stroke-dasharray:2,2;" x1="785.8447" x2="1466.1514" y1="453.0547" y2="453.0547"/><text fill="#334155" font-family="'DejaVu Sans'" font-size="11" font-weight="700" lengthAdjust="spacing" textLength="99.4673" x="790.8447" y="465.2651">[new command]</text><polygon fill="#475569" points="1105.7744,400.9219,1115.7744,404.9219,1105.7744,408.9219,1109.7744,404.9219" style="stroke:#475569;stroke-width:1;stroke-linejoin:miter;stroke-miterlimit:10;"/><line style="stroke:#475569;stroke-width:1;" x1="806.8447" x2="1111.7744" y1="404.9219" y2="404.9219"/><text fill="#000000" font-family="'DejaVu Sans'" font-size="13" font-weight="700" lengthAdjust="spacing" textLength="9.0454" x="813.8447" y="399.856">7</text><text fill="#000000" font-family="'DejaVu Sans'" font-size="13" lengthAdjust="spacing" textLength="241.1855" x="826.8901" y="399.856">read current actor-filtered aggregate</text><polygon fill="#475569" points="817.8447,430.0547,807.8447,434.0547,817.8447,438.0547,813.8447,434.0547" style="stroke:#475569;stroke-width:1;stroke-linejoin:miter;stroke-miterlimit:10;"/><line style="stroke:#475569;stroke-width:1;stroke-dasharray:2,2;" x1="811.8447" x2="1116.7744" y1="434.0547" y2="434.0547"/><text fill="#000000" font-family="'DejaVu Sans'" font-size="13" font-weight="700" lengthAdjust="spacing" textLength="9.0454" x="823.8447" y="428.9888">8</text><text fill="#000000" font-family="'DejaVu Sans'" font-size="13" lengthAdjust="spacing" textLength="154.8574" x="836.8901" y="428.9888">current revision + state</text><polygon fill="#475569" points="1105.7744,505.125,1115.7744,509.125,1105.7744,513.125,1109.7744,509.125" style="stroke:#475569;stroke-width:1;stroke-linejoin:miter;stroke-miterlimit:10;"/><line style="stroke:#475569;stroke-width:1;" x1="806.8447" x2="1111.7744" y1="509.125" y2="509.125"/><text fill="#000000" font-family="'DejaVu Sans'" font-size="13" font-weight="700" lengthAdjust="spacing" textLength="9.0454" x="813.8447" y="496.4927">9</text><text fill="#000000" font-family="'DejaVu Sans'" font-size="13" lengthAdjust="spacing" textLength="235.7583" x="826.8901" y="488.9263">BEGIN; apply route-scoped mutator;</text><text fill="#000000" font-family="'DejaVu Sans'" font-size="13" lengthAdjust="spacing" textLength="278.8843" x="826.8901" y="504.0591">insert receipt; increment revision; COMMIT</text><polygon fill="#475569" points="1428.1514,534.2578,1438.1514,538.2578,1428.1514,542.2578,1432.1514,538.2578" style="stroke:#475569;stroke-width:1;stroke-linejoin:miter;stroke-miterlimit:10;"/><line style="stroke:#475569;stroke-width:1;" x1="1127.7744" x2="1434.1514" y1="538.2578" y2="538.2578"/><text fill="#000000" font-family="'DejaVu Sans'" font-size="13" font-weight="700" lengthAdjust="spacing" textLength="18.0908" x="1134.7744" y="533.1919">10</text><text fill="#000000" font-family="'DejaVu Sans'" font-size="13" lengthAdjust="spacing" textLength="271.2861" x="1156.8652" y="533.1919">fsync temporary export + atomic rename</text><polygon fill="#475569" points="1138.7744,563.3906,1128.7744,567.3906,1138.7744,571.3906,1134.7744,567.3906" style="stroke:#475569;stroke-width:1;stroke-linejoin:miter;stroke-miterlimit:10;"/><line style="stroke:#475569;stroke-width:1;stroke-dasharray:2,2;" x1="1132.7744" x2="1439.1514" y1="567.3906" y2="567.3906"/><text fill="#000000" font-family="'DejaVu Sans'" font-size="13" font-weight="700" lengthAdjust="spacing" textLength="18.0908" x="1144.7744" y="562.3247">11</text><text fill="#000000" font-family="'DejaVu Sans'" font-size="13" lengthAdjust="spacing" textLength="49.6641" x="1166.8652" y="562.3247">durable</text><polygon fill="#475569" points="817.8447,592.5234,807.8447,596.5234,817.8447,600.5234,813.8447,596.5234" style="stroke:#475569;stroke-width:1;stroke-linejoin:miter;stroke-miterlimit:10;"/><line style="stroke:#475569;stroke-width:1;stroke-dasharray:2,2;" x1="811.8447" x2="1116.7744" y1="596.5234" y2="596.5234"/><text fill="#000000" font-family="'DejaVu Sans'" font-size="13" font-weight="700" lengthAdjust="spacing" textLength="18.0908" x="823.8447" y="591.4575">12</text><text fill="#000000" font-family="'DejaVu Sans'" font-size="13" lengthAdjust="spacing" textLength="221.2603" x="845.9355" y="591.4575">authoritative state + rebased flag</text><polygon fill="#475569" points="369.9927,635.6563,359.9927,639.6563,369.9927,643.6563,365.9927,639.6563" style="stroke:#475569;stroke-width:1;stroke-linejoin:miter;stroke-miterlimit:10;"/><line style="stroke:#475569;stroke-width:1;stroke-dasharray:2,2;" x1="363.9927" x2="795.8447" y1="639.6563" y2="639.6563"/><text fill="#000000" font-family="'DejaVu Sans'" font-size="13" font-weight="700" lengthAdjust="spacing" textLength="18.0908" x="375.9927" y="634.5903">13</text><text fill="#000000" font-family="'DejaVu Sans'" font-size="13" lengthAdjust="spacing" textLength="223.4756" x="398.0835" y="634.5903">200 + same command.mutationId</text><polygon fill="#475569" points="672.6152,664.7891,682.6152,668.7891,672.6152,672.7891,676.6152,668.7891" style="stroke:#475569;stroke-width:1;stroke-linejoin:miter;stroke-miterlimit:10;"/><line style="stroke:#475569;stroke-width:1;" x1="358.9927" x2="678.6152" y1="668.7891" y2="668.7891"/><text fill="#000000" font-family="'DejaVu Sans'" font-size="13" font-weight="700" lengthAdjust="spacing" textLength="18.0908" x="365.9927" y="663.7231">14</text><text fill="#000000" font-family="'DejaVu Sans'" font-size="13" lengthAdjust="spacing" textLength="214.0049" x="388.0835" y="663.7231">delete acknowledged mutationId</text><polygon fill="#475569" points="369.9927,693.9219,359.9927,697.9219,369.9927,701.9219,365.9927,697.9219" style="stroke:#475569;stroke-width:1;stroke-linejoin:miter;stroke-miterlimit:10;"/><line style="stroke:#475569;stroke-width:1;stroke-dasharray:2,2;" x1="363.9927" x2="683.6152" y1="697.9219" y2="697.9219"/><text fill="#000000" font-family="'DejaVu Sans'" font-size="13" font-weight="700" lengthAdjust="spacing" textLength="18.0908" x="375.9927" y="692.856">15</text><text fill="#000000" font-family="'DejaVu Sans'" font-size="13" lengthAdjust="spacing" textLength="57.9033" x="398.0835" y="692.856">removed</text><polygon fill="#475569" points="83.9644,737.0547,73.9644,741.0547,83.9644,745.0547,79.9644,741.0547" style="stroke:#475569;stroke-width:1;stroke-linejoin:miter;stroke-miterlimit:10;"/><line style="stroke:#475569;stroke-width:1;stroke-dasharray:2,2;" x1="77.9644" x2="347.9927" y1="741.0547" y2="741.0547"/><text fill="#000000" font-family="'DejaVu Sans'" font-size="13" font-weight="700" lengthAdjust="spacing" textLength="18.0908" x="89.9644" y="735.9888">16</text><text fill="#000000" font-family="'DejaVu Sans'" font-size="13" lengthAdjust="spacing" textLength="229.9375" x="112.0552" y="735.9888">&#171;&#1057;&#1086;&#1093;&#1088;&#1072;&#1085;&#1077;&#1085;&#1086;&#187; + authoritative state</text><g class="footer" data-source-line="6"><text fill="#888888" font-family="'DejaVu Sans'" font-size="10" lengthAdjust="spacing" textLength="479.4238" x="516.7295" y="849.6338">Contract: exact {revision, mutationId, payload|Blob} remains until matching acknowledgement</text></g><?plantuml-src TLHBRjim4Dth55ElMZHsWYvj882J_WmqJOgukm019OuT8XJ9KgHZjIcGJM_G2tJTJJTT5SqY9t2kq9DqI4cshBGBmn8ry_ZUcyyZOzayP-1GVmHdFIQFXCgavmY3mUvvuKg9vyPgxZDtNk27WV6vJ1BcdLO-Jz4cJZY9y9BbKykoI_XpynMujoobG-rTgfTWqKXM9ZEj7LeurCfHf1i2BkaFFbbSY49ejGEvTypHquJlW66br8nV7qYTVYQ8d0bLW5TEICYPoow4cWDTgFILH3x779KZNfdJ5dh4HiWISWmCUy0AY1-IL7l5cIsXToIKWB4ny7uIltkHSEPOoWg4taHnN29_Vb0hY17LOmlYzNHw0kEJAf-PDi3fkpV28JnTAo816GhZYXZCqoJJKc8MFXNG6pkTYmpelfcGM8M8uZBA4Gj6I1NzIbr_dzZ246RQujm6Eh0RyBLIXBZ98KaKHz5r6OOWHU4WqtdE52T1bgD53ca9cKNAuEDMTYstpkqtbrOrCwXuy1_L0gKsIFg9XJP13vCGQbOa7BjWYTJQ01rVD2n0g8f70b2H9IFfcfFZqocGDeTdghgowPAMgHDEBtMVxAQbmu9GDfPHHI324IfFWtojBxs1nxFO7Q79DaXFsgbK7mWf_JKVfHN2DJHKOYtfdJoVIK5fv8L5Ns38msqS9bsTnxsXOFf0fzlCo7uEcRUMchYgTPywmSNoiFcSwhpEsiBki6mGMbuLhidiya99dQhmgYd50r87BrvDtexeoD0enLhqYuoApIlRj1sTAPf9j6j7HbHEQgMypM44XyT7HvFfVzdlnruF_LoKAgD5b1jjmu3XaXuSQM3LU90qbdTT26CIaG96lw5UBw07kjVHRTTebrreAq8dBB0oZ2wr64QPmqoo-R_zYvP5mvhXUBQt5omdbesfWqs7RRT6rPsT-UGeCGxxUgjns0Be3XH0Tpx9VRt0pcLrT60SLqAG7bV94Ew-hxwjRk-_tD-iVgn-htxIx_RkLp3zeIljYGxx4hVNqry0?></g></svg>